<?xml version="1.0" standalone="no"?>
<!DOCTYPE svg PUBLIC "-//W3C//DTD SVG 20010904//EN"
 "http://www.w3.org/TR/2001/REC-SVG-20010904/DTD/svg10.dtd">
<svg version="1.0" xmlns="http://www.w3.org/2000/svg"
 width="700.000000pt" height="700.000000pt" viewBox="0 0 700.000000 700.000000"
 preserveAspectRatio="xMidYMid meet">
<metadata>
Created by potrace 1.11, written by Peter Selinger 2001-2013
</metadata>
<g transform="translate(0.000000,700.000000) scale(0.100000,-0.100000)"
fill="#000000" stroke="none">
<path d="M3476 6012 c-2 -4 -1 -14 4 -22 7 -11 9 -9 7 8 -1 24 -3 26 -11 14z"/>
<path d="M3510 5993 c6 -13 15 -23 20 -23 15 0 21 18 9 26 -8 4 -9 3 -5 -4 11
-19 -5 -14 -21 6 -13 15 -13 15 -3 -5z"/>
<path d="M3557 5993 c3 -7 6 -13 8 -13 2 0 5 6 8 13 3 8 -1 14 -8 14 -7 0 -11
-6 -8 -14z"/>
<path d="M3355 5989 c-4 -6 -5 -12 -2 -15 2 -3 7 2 10 11 7 17 1 20 -8 4z"/>
<path d="M3455 5990 c5 -9 1 -10 -16 -6 -21 6 -22 6 -6 -5 13 -7 22 -8 29 -1
6 6 6 12 -3 17 -8 6 -10 4 -4 -5z"/>
<path d="M3590 5989 c0 -4 8 -9 18 -11 10 -3 19 0 19 6 0 7 -9 12 -19 12 -10
0 -18 -3 -18 -7z"/>
<path d="M3375 5980 c-8 -13 3 -30 18 -29 9 0 9 2 0 6 -7 2 -13 9 -13 14 0 6
5 7 12 3 7 -4 8 -3 4 4 -9 15 -13 15 -21 2z"/>
<path d="M3685 5958 c10 -16 22 -25 31 -21 17 6 19 16 2 11 -7 -3 -21 5 -31
16 -18 21 -18 20 -2 -6z"/>
<path d="M3313 5955 c2 -11 9 -19 15 -17 7 1 12 -7 12 -18 0 -11 -6 -19 -12
-17 -8 1 -12 -7 -11 -20 2 -14 -2 -22 -9 -20 -7 1 -14 -9 -15 -23 -2 -24 -2
-24 5 -2 4 13 12 23 17 23 6 0 9 9 8 20 -2 11 3 18 10 16 7 -1 12 8 12 21 0
12 -4 22 -10 21 -5 0 -13 8 -17 18 -7 16 -8 16 -5 -2z"/>
<path d="M3414 5954 c3 -19 36 -41 36 -24 0 6 5 8 12 4 6 -4 8 -3 5 4 -4 5
-16 8 -27 5 -16 -4 -19 -2 -14 11 3 9 2 16 -4 16 -6 0 -9 -7 -8 -16z"/>
<path d="M3490 5960 c0 -5 5 -10 10 -10 6 0 10 5 10 10 0 6 -4 10 -10 10 -5 0
-10 -4 -10 -10z"/>
<path d="M3556 5959 c2 -4 -3 -10 -12 -13 -8 -3 -12 -10 -9 -16 3 -5 2 -10 -4
-10 -5 0 -12 5 -14 10 -3 6 -4 5 -3 -2 3 -14 26 -18 25 -4 0 5 12 17 27 27 25
16 26 18 7 16 -12 0 -20 -4 -17 -8z"/>
<path d="M3650 5963 c17 -8 11 -19 -10 -20 -13 -1 -18 2 -14 9 4 7 2 8 -5 4
-17 -11 -3 -26 22 -22 24 3 31 28 9 32 -7 1 -8 0 -2 -3z"/>
<path d="M3356 5947 c3 -10 9 -15 12 -12 3 3 0 11 -7 18 -10 9 -11 8 -5 -6z"/>
<path d="M3257 5936 c-3 -8 -3 -17 0 -20 10 -10 33 -7 33 4 0 5 -7 7 -15 4
-11 -5 -13 -2 -9 10 3 9 4 16 1 16 -3 0 -7 -6 -10 -14z"/>
<path d="M3577 5943 c-8 -18 -1 -48 12 -45 9 2 11 -3 7 -13 -3 -9 -2 -14 3
-10 5 3 11 0 13 -7 5 -13 45 -21 52 -10 3 4 0 14 -6 22 -8 12 -9 12 -5 -2 9
-27 -30 -18 -42 10 -6 13 -16 20 -22 17 -13 -9 -8 27 6 37 6 5 6 8 -2 8 -6 0
-14 -3 -16 -7z"/>
<path d="M3476 5925 c-3 -8 -1 -15 4 -15 6 0 10 7 10 15 0 8 -2 15 -4 15 -2 0
-6 -7 -10 -15z"/>
<path d="M3380 5926 c0 -2 7 -6 15 -10 8 -3 15 -1 15 4 0 6 -7 10 -15 10 -8 0
-15 -2 -15 -4z"/>
<path d="M3607 5919 c7 -7 15 -10 18 -7 3 3 -2 9 -12 12 -14 6 -15 5 -6 -5z"/>
<path d="M3715 5920 c-13 -6 -15 -9 -5 -9 8 0 22 4 30 9 18 12 2 12 -25 0z"/>
<path d="M3236 5907 c3 -10 9 -15 12 -12 3 3 0 11 -7 18 -10 9 -11 8 -5 -6z"/>
<path d="M3356 5895 c-3 -9 -6 -22 -5 -28 0 -7 5 -1 10 12 5 13 8 26 5 28 -2
2 -6 -3 -10 -12z"/>
<path d="M3416 5901 c-3 -5 2 -15 12 -22 15 -13 16 -12 4 3 -12 15 -11 17 7
15 13 -1 19 -8 18 -20 -1 -14 5 -21 23 -23 18 -3 21 -2 10 5 -8 5 -18 7 -22 5
-4 -3 -7 5 -5 17 1 15 -4 23 -20 25 -12 2 -24 0 -27 -5z"/>
<path d="M3496 5903 c-10 -10 -7 -33 4 -33 5 0 7 7 3 16 -5 14 -3 14 15 3 11
-7 20 -18 19 -23 -1 -6 8 -11 21 -10 15 0 22 -5 22 -18 0 -10 -5 -17 -12 -15
-6 1 -13 -11 -14 -28 -2 -20 0 -25 5 -16 5 8 7 20 4 28 -3 8 0 13 8 11 9 -2
14 6 14 22 0 21 -4 24 -24 22 -13 -2 -21 1 -17 6 7 11 -39 44 -48 35z"/>
<path d="M3550 5901 c0 -6 4 -13 10 -16 6 -3 7 1 4 9 -7 18 -14 21 -14 7z"/>
<path d="M3670 5900 c0 -5 5 -10 10 -10 6 0 10 5 10 10 0 6 -4 10 -10 10 -5 0
-10 -4 -10 -10z"/>
<path d="M3736 5902 c-2 -4 6 -7 20 -7 32 2 39 10 9 13 -13 1 -26 -2 -29 -6z"/>
<path d="M3219 5888 c-1 -7 -1 -16 0 -20 2 -12 -17 -10 -22 2 -3 6 -4 5 -3 -2
4 -22 29 -14 32 10 2 12 2 22 -1 22 -3 0 -6 -6 -6 -12z"/>
<path d="M3257 5868 c-5 -21 -5 -21 7 -6 7 10 17 14 21 10 5 -4 5 -1 1 6 -11
19 -23 14 -29 -10z"/>
<path d="M3390 5870 c6 -11 15 -18 21 -15 5 4 9 -3 9 -14 0 -12 -5 -20 -12
-18 -6 1 -13 -11 -14 -28 -2 -20 0 -25 5 -16 5 8 7 20 4 28 -3 8 0 13 8 11 9
-2 14 6 14 22 0 15 -5 24 -12 23 -7 -2 -13 4 -13 12 0 8 -5 15 -10 15 -7 0 -7
-7 0 -20z"/>
<path d="M3710 5880 c8 -5 20 -10 25 -10 6 0 3 5 -5 10 -8 5 -19 10 -25 10 -5
0 -3 -5 5 -10z"/>
<path d="M3786 5881 c-3 -5 1 -11 9 -14 9 -4 12 -1 8 9 -6 16 -10 17 -17 5z"/>
<path d="M3675 5850 c-16 -11 -25 -20 -20 -20 10 0 64 39 55 40 -3 0 -18 -9
-35 -20z"/>
<path d="M3750 5860 c0 -5 5 -10 10 -10 6 0 10 5 10 10 0 6 -4 10 -10 10 -5 0
-10 -4 -10 -10z"/>
<path d="M3522 5844 c10 -10 20 -16 22 -13 3 3 -5 11 -17 18 -21 13 -21 12 -5
-5z"/>
<path d="M3170 5840 c0 -5 5 -10 10 -10 6 0 10 5 10 10 0 6 -4 10 -10 10 -5 0
-10 -4 -10 -10z"/>
<path d="M3230 5840 c0 -6 7 -10 15 -10 8 0 15 2 15 4 0 2 -7 6 -15 10 -8 3
-15 1 -15 -4z"/>
<path d="M3340 5840 c18 -12 30 -13 30 -2 0 4 -10 9 -22 9 -18 2 -20 0 -8 -7z"/>
<path d="M3710 5840 c0 -5 7 -7 15 -4 8 4 15 8 15 10 0 2 -7 4 -15 4 -8 0 -15
-4 -15 -10z"/>
<path d="M3468 5833 c7 -3 16 -2 19 1 4 3 -2 6 -13 5 -11 0 -14 -3 -6 -6z"/>
<path d="M3144 5819 c-5 -8 -3 -9 6 -4 10 6 12 4 7 -8 -3 -10 -2 -17 3 -17 13
0 13 27 1 35 -5 3 -13 0 -17 -6z"/>
<path d="M3195 5819 c-4 -6 -4 -13 -1 -16 3 -4 6 -1 6 5 0 7 5 12 11 12 5 0 7
-5 3 -12 -4 -7 -3 -8 5 -4 12 8 6 26 -9 26 -5 0 -12 -5 -15 -11z"/>
<path d="M3310 5821 c0 -6 7 -8 15 -4 10 3 15 0 13 -8 -2 -8 7 -14 22 -16 24
-2 24 -2 2 5 -13 4 -23 12 -22 17 1 6 -6 11 -14 13 -9 2 -16 -1 -16 -7z"/>
<path d="M3437 5815 c-7 -18 6 -27 27 -19 12 5 15 2 10 -12 -5 -15 -4 -16 4
-4 14 19 5 32 -19 25 -14 -5 -17 -3 -13 9 3 9 4 16 1 16 -3 0 -7 -7 -10 -15z"/>
<path d="M3597 5815 c-6 -15 10 -32 20 -21 4 3 1 6 -5 6 -6 0 -9 7 -6 15 4 8
4 15 1 15 -3 0 -7 -7 -10 -15z"/>
<path d="M3675 5819 c-11 -16 -1 -19 13 -3 7 8 8 14 3 14 -5 0 -13 -5 -16 -11z"/>
<path d="M3724 5819 c-4 -8 -3 -9 4 -5 8 5 11 -1 9 -15 -2 -18 3 -23 23 -23
20 0 25 5 23 23 -2 12 1 20 5 17 4 -2 14 0 22 5 11 7 8 8 -10 5 -18 -2 -24 -9
-23 -23 1 -13 -4 -19 -17 -19 -14 0 -18 5 -15 17 7 20 -10 34 -21 18z"/>
<path d="M3510 5811 c0 -5 7 -11 14 -14 10 -4 13 -1 9 9 -6 15 -23 19 -23 5z"/>
<path d="M3641 5813 c-1 -6 -4 -20 -7 -30 -5 -17 -5 -17 6 0 6 10 9 23 6 30
-3 9 -5 9 -5 0z"/>
<path d="M3236 5802 c-2 -4 0 -14 6 -22 8 -12 9 -11 4 3 -5 15 -2 17 17 12 17
-5 19 -4 7 4 -18 13 -27 14 -34 3z"/>
<path d="M3696 5796 c3 -9 -2 -13 -18 -12 -14 1 -24 -5 -26 -16 -2 -10 1 -18
7 -18 6 0 8 6 5 14 -3 9 2 13 18 12 14 -1 24 5 26 17 2 9 -1 17 -7 17 -6 0 -8
-6 -5 -14z"/>
<path d="M3812 5793 c2 -9 14 -18 28 -20 18 -2 21 -1 10 6 -8 5 -18 7 -24 4
-5 -4 -7 1 -3 10 3 10 2 17 -4 17 -6 0 -9 -7 -7 -17z"/>
<path d="M3855 5800 c-3 -5 -1 -10 4 -10 6 0 11 5 11 10 0 6 -2 10 -4 10 -3 0
-8 -4 -11 -10z"/>
<path d="M3316 5787 c3 -10 9 -15 12 -12 3 3 0 11 -7 18 -10 9 -11 8 -5 -6z"/>
<path d="M3190 5772 c-8 -9 -14 -20 -12 -24 1 -5 -7 -8 -19 -8 -11 0 -18 4
-14 9 9 15 -15 25 -28 12 -9 -9 -8 -11 6 -5 12 4 17 2 15 -7 -2 -9 6 -14 20
-14 12 0 22 4 21 8 0 5 8 15 18 22 10 7 16 16 13 18 -3 3 -12 -2 -20 -11z"/>
<path d="M3284 5779 c-4 -7 -3 -9 4 -5 7 4 10 -1 9 -14 -1 -21 -12 -27 -20
-10 -3 6 -4 5 -3 -2 4 -22 29 -15 32 9 4 25 -11 39 -22 22z"/>
<path d="M3416 5783 c-10 -10 -7 -33 4 -33 5 0 6 8 3 18 -6 15 -5 15 10 3 10
-8 19 -12 22 -10 2 3 -4 10 -14 16 -11 7 -22 9 -25 6z"/>
<path d="M3499 5788 c-10 -22 -3 -50 15 -59 18 -9 19 -8 6 3 -8 7 -16 21 -18
31 -3 15 0 16 17 5 11 -6 19 -17 18 -22 -1 -6 9 -11 22 -11 19 0 24 5 25 27 1
14 -2 24 -7 21 -5 -3 -7 -14 -4 -24 4 -14 0 -19 -15 -19 -10 0 -17 4 -14 9 3
5 -5 16 -19 25 -14 9 -26 15 -26 14z"/>
<path d="M3220 5770 c0 -5 0 -13 1 -16 0 -4 -12 -15 -27 -25 -25 -16 -26 -18
-7 -16 12 0 20 4 17 8 -2 4 1 9 8 11 11 4 23 48 13 48 -3 0 -5 -4 -5 -10z"/>
<path d="M3358 5762 c13 -4 22 -11 20 -17 -2 -5 8 -11 22 -12 24 -2 24 -2 2 5
-13 4 -22 12 -20 17 2 6 -8 11 -22 12 -24 2 -24 2 -2 -5z"/>
<path d="M3605 5761 c11 -5 16 -10 10 -11 -5 0 -1 -7 9 -15 11 -8 16 -15 10
-15 -5 0 -2 -6 7 -13 9 -7 17 -16 17 -22 2 -12 42 -13 41 -1 0 5 12 17 28 27
15 10 24 19 20 19 -16 0 -57 -32 -51 -41 3 -5 -4 -9 -16 -9 -12 0 -18 5 -15
10 3 6 -1 13 -9 16 -9 3 -14 10 -11 14 3 5 -3 13 -12 19 -10 5 -17 13 -15 18
2 4 -5 9 -15 10 -15 2 -15 1 2 -6z"/>
<path d="M3710 5755 c0 -8 2 -15 4 -15 2 0 6 7 10 15 3 8 1 15 -4 15 -6 0 -10
-7 -10 -15z"/>
<path d="M3796 5755 c4 -8 8 -15 10 -15 2 0 4 7 4 15 0 8 -4 15 -10 15 -5 0
-7 -7 -4 -15z"/>
<path d="M3321 5753 c-1 -17 16 -25 25 -12 4 7 3 9 -4 5 -5 -3 -13 0 -15 6 -4
9 -6 10 -6 1z"/>
<path d="M3672 5744 c-7 -8 -8 -14 -3 -14 10 0 25 19 20 25 -2 1 -10 -3 -17
-11z"/>
<path d="M3750 5751 c0 -14 29 -21 36 -9 4 7 3 8 -4 4 -7 -4 -12 -2 -12 3 0 6
-4 11 -10 11 -5 0 -10 -4 -10 -9z"/>
<path d="M3830 5749 c0 -5 5 -7 10 -4 6 3 10 8 10 11 0 2 -4 4 -10 4 -5 0 -10
-5 -10 -11z"/>
<path d="M3856 5742 c-2 -4 5 -19 16 -32 l20 -25 -17 29 c-16 26 -16 28 -1 23
9 -4 16 -2 16 3 0 12 -27 13 -34 2z"/>
<path d="M3110 5720 c0 -6 6 -13 13 -16 7 -2 13 -14 14 -25 2 -17 -1 -18 -13
-8 -8 6 -17 9 -21 5 -3 -3 -1 -6 6 -6 7 0 10 -4 7 -9 -4 -5 2 -8 11 -7 22 3
27 45 7 53 -8 3 -11 9 -8 14 3 5 0 9 -5 9 -6 0 -11 -5 -11 -10z"/>
<path d="M3260 5720 c8 -5 20 -10 25 -10 6 0 3 5 -5 10 -8 5 -19 10 -25 10 -5
0 -3 -5 5 -10z"/>
<path d="M3313 5723 c4 -6 0 -14 -9 -17 -8 -3 -13 -9 -10 -14 2 -4 -4 -14 -15
-21 -18 -11 -20 -10 -17 11 2 19 -2 23 -22 23 -15 0 -24 -5 -22 -12 3 -16 -15
-17 -20 -1 -3 8 -6 7 -10 -4 -5 -11 0 -15 15 -14 12 1 21 7 20 14 -2 7 6 12
17 12 13 0 18 -5 14 -15 -10 -26 6 -36 32 -19 13 9 22 19 19 22 -2 3 3 10 12
17 13 9 13 14 3 20 -8 5 -11 4 -7 -2z"/>
<path d="M3360 5720 c8 -5 20 -10 25 -10 6 0 3 5 -5 10 -8 5 -19 10 -25 10 -5
0 -3 -5 5 -10z"/>
<path d="M3464 5723 c4 -4 16 -8 28 -10 28 -4 18 6 -12 12 -12 2 -20 1 -16 -2z"/>
<path d="M3580 5720 c-8 -5 -10 -10 -5 -10 6 0 17 5 25 10 8 5 11 10 5 10 -5
0 -17 -5 -25 -10z"/>
<path d="M3680 5720 c-8 -5 -10 -10 -5 -10 6 0 17 5 25 10 8 5 11 10 5 10 -5
0 -17 -5 -25 -10z"/>
<path d="M3777 5718 c-7 -5 0 -6 17 -4 16 3 31 7 33 10 8 8 -37 2 -50 -6z"/>
<path d="M3829 5710 c-9 -5 -16 -20 -15 -32 1 -18 6 -22 25 -20 16 3 21 0 16
-9 -5 -8 -4 -10 4 -5 17 11 2 29 -19 23 -14 -3 -18 1 -17 14 1 11 7 19 14 19
7 0 13 5 13 10 0 12 -1 12 -21 0z"/>
<path d="M3338 5703 c-2 -4 -4 -17 -4 -28 1 -14 7 -20 24 -19 16 1 22 -3 18
-12 -3 -8 -1 -14 5 -14 6 0 9 8 7 18 -2 10 -12 17 -25 16 -15 -1 -21 4 -20 17
1 21 12 25 20 9 3 -6 4 -5 3 2 -3 14 -23 22 -28 11z"/>
<path d="M3440 5700 c-8 -5 -11 -13 -6 -17 5 -4 11 -2 13 5 3 6 10 9 15 6 7
-4 8 -2 4 4 -9 14 -7 14 -26 2z"/>
<path d="M3515 5700 c-4 -6 -4 -14 -1 -17 3 -4 6 -1 6 5 0 20 16 13 17 -7 1
-13 -5 -18 -20 -17 -13 1 -23 -6 -25 -16 -2 -10 1 -18 7 -18 6 0 8 6 5 14 -4
9 2 13 18 12 18 -1 23 4 23 23 0 26 -19 39 -30 21z"/>
<path d="M3595 5701 c-3 -6 0 -9 7 -6 9 4 14 -3 15 -16 2 -17 -1 -19 -10 -10
-6 6 -15 11 -21 11 -5 0 -1 -6 9 -14 24 -18 36 -12 31 16 -3 24 -21 35 -31 19z"/>
<path d="M3390 5685 c0 -8 4 -15 10 -15 5 0 7 7 4 15 -4 8 -8 15 -10 15 -2 0
-4 -7 -4 -15z"/>
<path d="M3476 5685 c-3 -8 -1 -15 4 -15 6 0 10 7 10 15 0 8 -2 15 -4 15 -2 0
-6 -7 -10 -15z"/>
<path d="M3730 5676 c0 -22 13 -26 35 -10 10 8 14 14 9 14 -6 0 -16 -6 -23
-12 -11 -11 -13 -10 -8 5 4 9 2 17 -3 17 -6 0 -10 -6 -10 -14z"/>
<path d="M3851 5687 c2 -1 13 -9 24 -17 19 -14 19 -14 6 3 -7 9 -18 17 -24 17
-6 0 -8 -1 -6 -3z"/>
<path d="M3156 5653 c-6 -14 -5 -15 5 -6 7 7 10 15 7 18 -3 3 -9 -2 -12 -12z"/>
<path d="M3234 5645 c1 -17 8 -29 14 -27 7 1 12 -7 12 -17 0 -14 -5 -18 -19
-14 -10 3 -21 1 -24 -4 -3 -5 7 -8 21 -7 22 1 27 6 27 25 0 15 -5 23 -14 21
-8 -2 -11 3 -8 11 3 8 1 20 -4 28 -5 9 -7 4 -5 -16z"/>
<path d="M3311 5665 c1 -19 18 -51 18 -35 0 8 -4 22 -9 30 -5 8 -9 11 -9 5z"/>
<path d="M3415 5659 c-3 -4 -2 -15 2 -25 5 -13 3 -15 -7 -9 -9 5 -11 4 -6 -4
11 -16 28 -2 21 18 -3 12 1 17 15 17 13 0 18 -6 17 -19 -1 -14 5 -21 23 -23
18 -3 21 -2 10 5 -8 5 -18 7 -22 5 -4 -3 -7 5 -5 17 1 16 -4 22 -21 24 -13 1
-25 -2 -27 -6z"/>
<path d="M3557 5655 c-7 -18 6 -27 27 -19 12 5 15 2 10 -12 -5 -15 -4 -16 4
-4 14 19 5 32 -19 25 -14 -5 -17 -3 -13 9 3 9 4 16 1 16 -3 0 -7 -7 -10 -15z"/>
<path d="M3636 5653 c-6 -14 -5 -15 5 -6 7 7 10 15 7 18 -3 3 -9 -2 -12 -12z"/>
<path d="M3713 5651 c0 -11 5 -18 9 -15 4 3 5 11 1 19 -7 21 -12 19 -10 -4z"/>
<path d="M3794 5657 c5 -15 2 -17 -13 -12 -24 7 -33 -6 -19 -25 8 -12 9 -11 4
3 -5 15 -2 17 13 12 24 -7 33 6 19 25 -8 12 -9 11 -4 -3z"/>
<path d="M3887 5648 c-13 -10 -14 -17 -6 -28 9 -12 10 -12 5 4 -4 13 -2 17 7
13 8 -3 14 1 14 9 0 17 1 17 -20 2z"/>
<path d="M3179 5643 c-1 -5 -1 -12 0 -16 2 -11 -32 -4 -42 8 -5 6 -7 4 -4 -5
4 -16 47 -21 46 -5 0 6 10 13 23 17 l23 6 -22 1 c-13 1 -24 -2 -24 -6z"/>
<path d="M3276 5642 c-2 -4 0 -14 6 -22 8 -12 9 -11 4 4 -5 14 -2 17 9 12 9
-3 13 -2 10 4 -7 12 -22 13 -29 2z"/>
<path d="M3659 5643 c-1 -5 -1 -12 0 -16 1 -5 -9 -7 -21 -5 -18 2 -23 -2 -23
-19 0 -13 4 -23 10 -22 5 0 13 -8 17 -18 7 -16 8 -16 5 2 -2 11 -9 19 -15 18
-7 -2 -12 5 -12 15 0 11 7 18 18 18 9 -1 18 4 19 9 1 6 12 13 25 17 l23 6 -22
1 c-13 1 -24 -2 -24 -6z"/>
<path d="M3350 5631 c0 -10 19 -25 25 -20 1 2 -3 10 -11 17 -8 7 -14 8 -14 3z"/>
<path d="M3084 5619 c-4 -7 -3 -9 4 -5 6 3 13 -2 15 -11 4 -16 5 -16 6 -1 1
21 -15 32 -25 17z"/>
<path d="M3525 5620 c-16 -7 -17 -9 -3 -9 9 -1 20 4 23 9 7 11 7 11 -20 0z"/>
<path d="M3697 5617 c3 -5 14 -7 24 -4 14 4 19 0 19 -15 0 -10 -4 -17 -9 -14
-5 3 -16 -5 -25 -19 -11 -17 -13 -26 -4 -31 7 -4 8 -3 4 4 -4 7 -2 12 3 12 6
0 11 7 11 15 0 8 6 14 13 13 7 -2 12 7 12 21 0 19 -5 24 -27 25 -14 1 -24 -2
-21 -7z"/>
<path d="M3817 5617 c3 -5 13 -7 23 -4 14 3 18 -1 17 -14 -1 -14 -7 -18 -22
-14 -18 5 -18 5 -2 -5 22 -14 35 -6 33 21 -1 17 -8 23 -28 23 -14 1 -24 -2
-21 -7z"/>
<path d="M3130 5592 c6 -12 16 -20 22 -16 7 5 9 -2 4 -22 -5 -24 -4 -26 5 -11
11 18 4 56 -8 44 -3 -4 -12 1 -20 11 -13 15 -13 15 -3 -6z"/>
<path d="M3177 5598 c-7 -5 0 -6 17 -4 16 3 31 7 33 10 8 8 -37 2 -50 -6z"/>
<path d="M3340 5600 c35 -24 54 -31 30 -11 -14 11 -29 21 -35 21 -5 0 -3 -5 5
-10z"/>
<path d="M3390 5600 c0 -6 7 -10 15 -10 8 0 15 2 15 4 0 2 -7 6 -15 10 -8 3
-15 1 -15 -4z"/>
<path d="M3550 5600 c0 -5 7 -7 15 -4 8 4 15 8 15 10 0 2 -7 4 -15 4 -8 0 -15
-4 -15 -10z"/>
<path d="M3662 5602 c-8 -6 -2 -9 18 -9 20 0 26 3 18 9 -7 4 -15 8 -18 8 -3 0
-11 -4 -18 -8z"/>
<path d="M3780 5606 c0 -2 7 -6 15 -10 8 -3 15 -1 15 4 0 6 -7 10 -15 10 -8 0
-15 -2 -15 -4z"/>
<path d="M3293 5573 c-3 -7 -9 -10 -14 -7 -5 3 -6 -2 -3 -11 4 -10 2 -15 -7
-13 -19 4 -18 -44 1 -49 9 -3 11 -1 5 4 -14 11 -19 47 -6 38 6 -3 16 4 22 17
12 28 51 37 42 10 -4 -14 -3 -14 5 -2 6 8 9 17 6 21 -7 12 -46 6 -51 -8z"/>
<path d="M3430 5580 c0 -5 5 -10 10 -10 6 0 10 5 10 10 0 6 -4 10 -10 10 -5 0
-10 -4 -10 -10z"/>
<path d="M3515 5579 c-11 -16 -1 -19 13 -3 7 8 8 14 3 14 -5 0 -13 -5 -16 -11z"/>
<path d="M3564 5579 c-4 -8 -3 -9 4 -5 8 5 11 0 9 -15 -1 -15 4 -23 20 -25 29
-5 37 10 15 27 -15 13 -16 12 -4 -3 12 -15 11 -17 -7 -15 -15 1 -19 6 -16 18
7 20 -10 35 -21 18z"/>
<path d="M3776 5581 c-4 -5 -4 -15 -1 -23 4 -9 -2 -14 -16 -15 -18 -2 -19 0
-7 15 12 15 11 16 -4 3 -22 -17 -14 -32 15 -27 16 2 21 10 20 25 -2 15 1 20 9
15 7 -4 8 -3 4 4 -9 14 -13 15 -20 3z"/>
<path d="M3190 5571 c0 -10 19 -25 25 -20 1 2 -3 10 -11 17 -8 7 -14 8 -14 3z"/>
<path d="M3662 5555 c-6 -14 -10 -25 -8 -25 2 0 11 11 20 25 9 14 13 25 8 25
-5 0 -14 -11 -20 -25z"/>
<path d="M3117 5556 c-4 -10 -1 -13 8 -9 8 3 12 9 9 14 -7 12 -11 11 -17 -5z"/>
<path d="M3233 5549 c-2 -23 3 -25 10 -4 4 8 3 16 -1 19 -4 3 -9 -4 -9 -15z"/>
<path d="M3411 5553 c12 -15 12 -16 -3 -10 -10 3 -18 2 -18 -3 0 -11 23 -14
33 -4 8 8 -3 34 -15 34 -6 0 -4 -8 3 -17z"/>
<path d="M3450 5559 c-12 -8 -10 -9 7 -4 19 5 22 3 17 -12 -5 -14 -4 -15 4 -3
19 25 0 38 -28 19z"/>
<path d="M3536 5556 c4 -9 -2 -13 -18 -12 -18 1 -23 -4 -23 -24 0 -26 26 -36
31 -12 1 7 0 8 -3 2 -8 -16 -19 -12 -20 9 -1 13 5 18 20 17 13 -1 23 6 25 17
2 9 -1 17 -7 17 -6 0 -8 -6 -5 -14z"/>
<path d="M3810 5556 c0 -23 16 -27 31 -8 13 16 13 16 -5 2 -18 -14 -19 -13
-13 3 3 9 2 17 -3 17 -6 0 -10 -6 -10 -14z"/>
<path d="M3890 5566 c0 -2 7 -7 16 -10 8 -3 12 -2 9 4 -6 10 -25 14 -25 6z"/>
<path d="M3174 5536 c-3 -8 -3 -20 1 -26 3 -6 -3 -10 -14 -10 -12 0 -20 5 -18
12 1 6 -11 13 -28 14 -20 2 -25 0 -16 -5 8 -5 20 -7 28 -4 8 3 13 0 11 -8 -2
-9 6 -14 22 -14 20 0 24 4 22 23 -3 21 -1 22 17 11 11 -7 18 -16 15 -20 -4 -7
39 -39 53 -39 4 0 -4 8 -20 18 -15 10 -25 21 -22 24 3 3 -6 13 -20 22 -22 15
-26 15 -31 2z"/>
<path d="M3868 5543 c6 -2 18 -2 25 0 6 3 1 5 -13 5 -14 0 -19 -2 -12 -5z"/>
<path d="M3373 5520 c1 -14 8 -24 15 -22 6 1 12 -7 12 -18 0 -11 -6 -19 -12
-17 -8 1 -13 -8 -13 -20 0 -13 5 -23 10 -24 6 0 15 -10 22 -23 11 -21 53 -32
53 -13 0 4 0 12 0 17 0 6 -5 10 -11 10 -8 0 -8 -4 1 -14 9 -12 8 -15 -9 -13
-11 0 -24 12 -30 25 -6 13 -16 20 -21 17 -6 -3 -10 3 -10 14 0 12 6 20 13 19
7 -2 12 7 12 20 0 12 -4 22 -10 21 -5 0 -13 10 -17 23 -7 22 -7 22 -5 -2z"/>
<path d="M3285 5520 c-3 -6 1 -7 9 -4 18 7 21 14 7 14 -6 0 -13 -4 -16 -10z"/>
<path d="M3420 5520 c-18 -12 -2 -12 25 0 13 6 15 9 5 9 -8 0 -22 -4 -30 -9z"/>
<path d="M3550 5515 c0 -8 2 -15 4 -15 2 0 6 7 10 15 3 8 1 15 -4 15 -6 0 -10
-7 -10 -15z"/>
<path d="M3630 5520 c0 -6 7 -10 15 -10 8 0 15 2 15 4 0 2 -7 6 -15 10 -8 3
-15 1 -15 -4z"/>
<path d="M3710 5520 c-13 -8 -12 -10 3 -10 9 0 17 5 17 10 0 12 -1 12 -20 0z"/>
<path d="M3796 5515 c4 -8 8 -15 10 -15 2 0 4 7 4 15 0 8 -4 15 -10 15 -5 0
-7 -7 -4 -15z"/>
<path d="M3857 5513 c6 -16 5 -16 -10 -4 -9 7 -17 9 -17 3 0 -12 26 -23 34
-15 10 10 7 33 -4 33 -5 0 -6 -8 -3 -17z"/>
<path d="M3890 5515 c0 -8 2 -15 4 -15 2 0 6 7 10 15 3 8 1 15 -4 15 -6 0 -10
-7 -10 -15z"/>
<path d="M3470 5511 c0 -7 -5 -9 -12 -5 -7 5 -8 3 -3 -5 5 -9 10 -10 18 -2 6
6 8 14 4 18 -4 3 -7 1 -7 -6z"/>
<path d="M3590 5510 c0 -5 7 -10 15 -10 9 0 12 -6 9 -15 -4 -8 -2 -15 4 -15 6
0 9 7 8 16 -3 19 -36 41 -36 24z"/>
<path d="M3751 5511 c-17 -11 -24 -41 -9 -41 6 0 8 7 4 15 -3 9 0 15 9 15 8 0
15 5 15 10 0 12 -1 12 -19 1z"/>
<path d="M3295 5501 c-3 -5 0 -13 6 -17 7 -4 9 -3 5 4 -4 7 1 10 14 9 21 -1
27 -12 10 -20 -6 -3 -5 -4 2 -3 7 2 13 9 13 16 0 15 -41 24 -50 11z"/>
<path d="M3670 5500 c0 -5 5 -10 10 -10 6 0 10 5 10 10 0 6 -4 10 -10 10 -5 0
-10 -4 -10 -10z"/>
<path d="M3430 5491 c0 -5 5 -13 10 -16 6 -3 10 -2 10 4 0 5 -4 13 -10 16 -5
3 -10 2 -10 -4z"/>
<path d="M3119 5488 c-8 -26 -5 -36 9 -31 10 4 13 2 8 -5 -3 -6 -2 -13 3 -16
5 -4 8 2 7 11 -2 9 -8 19 -14 21 -7 2 -10 8 -6 13 3 5 3 9 0 9 -3 0 -6 -1 -7
-2z"/>
<path d="M3182 5482 c-8 -6 -2 -9 18 -9 20 0 26 3 18 9 -7 4 -15 8 -18 8 -3 0
-11 -4 -18 -8z"/>
<path d="M3356 5475 c-9 -26 -7 -32 5 -12 6 10 9 21 6 23 -2 3 -7 -2 -11 -11z"/>
<path d="M3519 5473 c-13 -17 -13 -17 6 -3 11 8 22 16 24 17 2 2 0 3 -6 3 -6
0 -17 -8 -24 -17z"/>
<path d="M3565 5480 c-3 -6 1 -7 9 -4 18 7 21 14 7 14 -6 0 -13 -4 -16 -10z"/>
<path d="M3650 5483 c5 -2 10 -9 10 -14 0 -6 -4 -8 -8 -5 -4 2 -14 0 -22 -5
-11 -7 -8 -8 10 -6 26 4 35 28 12 33 -7 1 -8 0 -2 -3z"/>
<path d="M3695 5479 c-9 -14 0 -22 28 -26 17 -2 19 -1 7 6 -8 5 -18 7 -22 5
-4 -3 -8 -1 -8 5 0 5 6 12 13 14 9 4 9 6 0 6 -6 1 -15 -4 -18 -10z"/>
<path d="M3770 5486 c0 -2 7 -7 16 -10 8 -3 12 -2 9 4 -6 10 -25 14 -25 6z"/>
<path d="M3810 5478 c0 -6 3 -8 7 -5 3 4 12 2 20 -4 8 -7 13 -8 13 -1 0 5 -7
13 -16 16 -22 8 -24 8 -24 -6z"/>
<path d="M3871 5473 c0 -11 3 -13 6 -5 2 6 10 9 15 6 7 -4 8 -2 4 4 -11 18
-26 14 -25 -5z"/>
<path d="M3288 5463 c-10 -2 -18 -9 -18 -14 0 -6 8 -5 20 1 11 6 20 13 20 15
0 3 -1 4 -2 4 -2 -1 -11 -3 -20 -6z"/>
<path d="M3459 5463 c-1 -5 -1 -12 0 -17 1 -5 -5 -6 -14 -3 -8 4 -15 2 -15 -4
0 -6 8 -9 17 -7 9 2 16 8 14 13 -1 6 8 13 21 17 l23 6 -22 1 c-13 1 -24 -2
-24 -6z"/>
<path d="M3534 5459 c-4 -7 -3 -9 4 -5 5 3 13 0 15 -6 4 -9 6 -10 6 -1 1 17
-16 25 -25 12z"/>
<path d="M3577 5463 c-8 -17 -1 -48 11 -45 6 1 12 -5 12 -13 0 -8 5 -15 11
-15 5 0 7 -5 3 -12 -4 -7 -3 -8 4 -4 9 5 7 14 -4 31 -9 14 -20 22 -26 19 -12
-8 -6 29 7 38 6 5 6 8 -2 8 -6 0 -14 -3 -16 -7z"/>
<path d="M3755 5461 c-3 -6 0 -9 7 -6 9 4 14 -2 15 -15 1 -11 -3 -19 -9 -17
-6 1 -13 -5 -15 -13 -4 -12 -3 -12 5 -2 5 8 13 13 18 13 13 -1 11 42 -3 46 -6
2 -14 -1 -18 -6z"/>
<path d="M3161 5444 c0 -11 3 -14 6 -6 3 7 2 16 -1 19 -3 4 -6 -2 -5 -13z"/>
<path d="M3190 5450 c0 -5 5 -10 10 -10 6 0 10 5 10 10 0 6 -4 10 -10 10 -5 0
-10 -4 -10 -10z"/>
<path d="M3236 5445 c-3 -8 -1 -15 4 -15 6 0 10 7 10 15 0 8 -2 15 -4 15 -2 0
-6 -7 -10 -15z"/>
<path d="M3310 5440 c0 -5 7 -7 15 -4 8 4 15 8 15 10 0 2 -7 4 -15 4 -8 0 -15
-4 -15 -10z"/>
<path d="M3490 5436 c0 -22 13 -26 35 -10 10 8 14 14 9 14 -6 0 -16 -6 -23
-12 -11 -11 -13 -10 -8 5 4 9 2 17 -3 17 -6 0 -10 -6 -10 -14z"/>
<path d="M3607 5439 c7 -7 15 -10 18 -7 3 3 -2 9 -12 12 -14 6 -15 5 -6 -5z"/>
<path d="M3850 5440 c0 -5 5 -10 10 -10 6 0 10 5 10 10 0 6 -4 10 -10 10 -5 0
-10 -4 -10 -10z"/>
<path d="M3708 5433 c7 -3 16 -2 19 1 4 3 -2 6 -13 5 -11 0 -14 -3 -6 -6z"/>
<path d="M3195 5413 c-11 -8 -19 -19 -17 -25 2 -6 -4 -8 -15 -4 -14 6 -15 4
-6 -5 12 -12 37 -3 29 10 -3 4 4 13 15 19 17 11 20 10 17 -5 -2 -10 -10 -24
-18 -31 -13 -11 -12 -12 5 -3 20 9 31 46 17 55 -4 2 -16 -2 -27 -11z"/>
<path d="M3249 5408 c-7 -12 -6 -18 1 -18 6 0 8 -5 4 -12 -4 -6 -3 -8 4 -5 5
4 8 17 4 29 -3 12 -1 19 4 15 6 -3 16 -2 24 3 11 7 9 9 -8 7 -13 -1 -28 -9
-33 -19z"/>
<path d="M3324 5419 c-5 -8 -3 -9 5 -4 9 5 12 0 9 -16 -2 -20 1 -24 21 -24 14
0 26 7 28 15 3 9 1 11 -4 5 -4 -5 -15 -11 -25 -13 -12 -2 -15 3 -11 17 5 22
-12 37 -23 20z"/>
<path d="M3470 5421 c0 -6 4 -13 10 -16 6 -3 7 1 4 9 -7 18 -14 21 -14 7z"/>
<path d="M3550 5426 c0 -5 7 -17 16 -27 15 -17 15 -18 -5 -16 -12 1 -21 7 -21
14 0 7 -5 13 -10 13 -7 0 -7 -6 -1 -19 10 -19 52 -24 50 -6 -2 14 -29 52 -29
41z"/>
<path d="M3670 5420 c0 -5 5 -10 10 -10 6 0 10 5 10 10 0 6 -4 10 -10 10 -5 0
-10 -4 -10 -10z"/>
<path d="M3796 5413 c-6 -14 -5 -15 5 -6 7 7 10 15 7 18 -3 3 -9 -2 -12 -12z"/>
<path d="M3136 5403 c-6 -14 -5 -15 5 -6 7 7 10 15 7 18 -3 3 -9 -2 -12 -12z"/>
<path d="M3827 5409 c-9 -6 -14 -15 -11 -21 5 -7 1 -9 -9 -5 -10 3 -17 2 -17
-4 0 -6 8 -9 18 -7 9 2 16 10 15 16 -2 7 4 12 12 12 8 0 15 5 15 10 0 12 0 12
-23 -1z"/>
<path d="M1996 5402 c-3 -5 -19 -8 -36 -7 -16 1 -30 -1 -30 -6 0 -4 -9 -6 -20
-4 -11 2 -22 -1 -25 -6 -4 -5 -11 -7 -16 -4 -5 4 -6 -2 -2 -12 6 -16 5 -16
-11 -4 -15 12 -17 12 -14 0 2 -8 -3 -13 -11 -11 -7 1 -19 -2 -25 -8 -7 -5 -15
-7 -18 -5 -3 3 -4 -5 -3 -19 2 -19 -1 -24 -16 -23 -10 1 -19 5 -19 10 0 10
-47 -45 -48 -56 -1 -5 -13 -18 -27 -29 -14 -11 -24 -23 -21 -26 4 -3 -1 -14
-11 -24 -16 -18 -9 -24 20 -19 5 1 6 -3 2 -9 -4 -6 -14 -9 -23 -8 -9 2 -17 -3
-18 -9 -1 -7 -2 -14 -3 -15 -2 -2 -4 -13 -7 -26 -3 -15 0 -21 7 -17 6 4 8 14
4 24 -5 12 -3 13 5 5 9 -9 9 -17 0 -33 -6 -12 -14 -19 -19 -17 -4 3 -7 -12 -6
-32 1 -20 -4 -40 -9 -44 -8 -5 -7 -8 1 -8 7 0 10 -10 7 -25 -2 -14 0 -25 4
-25 5 0 8 -11 7 -25 -2 -13 3 -29 11 -36 7 -6 11 -16 8 -21 -4 -6 -1 -14 5
-18 7 -4 14 -16 15 -26 2 -10 9 -18 15 -16 7 1 11 -4 9 -12 -2 -8 9 -25 24
-39 15 -14 24 -28 20 -33 -4 -4 -2 -4 4 -1 6 3 17 -3 24 -14 8 -10 18 -19 23
-19 4 0 17 -9 29 -20 12 -10 25 -17 29 -14 4 2 10 0 14 -6 4 -6 11 -8 16 -5 5
4 9 1 9 -5 0 -6 4 -9 9 -5 5 3 13 0 16 -6 4 -6 18 -8 32 -4 18 4 23 3 17 -7
-4 -7 -4 -10 1 -6 4 4 14 3 21 -3 8 -7 14 -7 19 1 3 5 11 10 16 10 6 0 7 -5 3
-12 -5 -7 -3 -8 7 -2 8 5 28 9 44 10 69 3 76 4 70 13 -3 5 -1 12 5 16 5 3 10
0 10 -7 0 -9 3 -10 8 -2 4 6 15 10 25 8 9 -1 17 2 17 7 0 6 5 7 10 4 6 -3 10
-1 10 5 0 6 4 8 10 5 6 -3 7 1 4 10 -4 11 -2 14 9 9 8 -3 25 5 40 20 14 14 29
22 33 18 5 -4 2 2 -6 12 -14 18 -13 19 2 13 25 -9 72 51 55 72 -10 12 -9 14 5
8 20 -7 37 17 33 46 -2 9 2 17 8 17 7 0 5 5 -3 10 -13 8 -12 10 4 10 11 0 16
5 13 14 -3 8 -3 17 1 21 9 8 12 136 3 150 -3 6 -6 15 -7 20 0 6 -2 16 -2 24
-1 8 -9 11 -19 7 -15 -5 -15 -4 1 9 11 8 15 15 10 15 -5 0 -10 10 -11 21 -1
12 -9 29 -17 38 -9 10 -15 20 -14 22 2 2 -3 -3 -11 -11 -11 -13 -12 -12 -6 8
4 14 2 22 -6 22 -7 0 -9 3 -6 7 4 3 2 12 -4 20 -9 10 -15 10 -25 2 -15 -12
-19 0 -6 17 4 5 5 8 3 7 -2 -2 -9 5 -16 14 -7 9 -23 18 -36 19 -13 2 -18 0
-11 -2 6 -3 10 -9 7 -14 -3 -4 3 -14 12 -21 11 -10 14 -10 9 -2 -5 9 -2 11 9
7 9 -4 15 -7 13 -8 -2 -1 -14 -10 -27 -21 -16 -13 -21 -15 -16 -5 6 12 5 13
-5 3 -23 -21 -2 -28 22 -7 l23 18 -22 -24 c-18 -19 -25 -22 -35 -12 -10 10 -9
16 4 29 15 14 15 18 2 39 -14 20 -13 23 3 34 16 10 15 10 -5 5 -16 -5 -22 -3
-20 7 2 7 -3 12 -9 11 -7 -2 -13 2 -13 9 0 6 -6 4 -13 -7 -9 -11 -19 -15 -27
-10 -9 6 -11 4 -5 -6 8 -12 6 -12 -8 0 -9 7 -14 17 -11 22 3 5 0 9 -7 9 -7 0
-9 3 -6 6 4 4 13 2 20 -4 8 -7 18 -8 22 -4 5 4 5 1 1 -5 -4 -7 -2 -13 3 -13 6
0 11 5 11 10 0 15 -45 30 -75 24 -15 -3 -24 -1 -21 4 3 5 -7 8 -22 7 -15 -1
-32 2 -39 7 -6 5 -14 5 -17 0z m44 -17 c8 0 21 -4 28 -8 6 -5 16 -6 21 -3 8 5
76 -81 76 -96 0 -4 7 -13 15 -20 12 -11 12 -11 2 3 -10 13 -9 19 2 28 15 12
16 35 2 48 -4 4 -6 1 -4 -7 2 -9 -3 -14 -11 -12 -12 3 -12 0 -1 -15 13 -17 13
-17 -6 0 -19 18 -19 18 1 30 31 18 41 16 42 -5 1 -11 9 -28 17 -37 14 -15 14
-19 -1 -34 -16 -16 -16 -18 0 -34 16 -16 18 -15 42 7 14 13 25 20 25 16 0 -5
7 -3 15 4 8 7 16 10 16 6 2 -9 6 -25 9 -33 1 -5 3 -15 4 -23 0 -8 9 -14 18
-12 24 4 42 -52 25 -75 -9 -13 -8 -14 16 -17 6 0 13 -8 13 -16 1 -8 3 -17 4
-20 1 -3 3 -38 4 -78 2 -57 -2 -75 -14 -82 -13 -8 -13 -9 0 -10 13 0 13 -1 0
-10 -8 -5 -15 -25 -15 -44 -1 -33 -15 -66 -15 -36 0 10 -3 10 -15 0 -11 -9
-12 -16 -5 -26 8 -9 6 -15 -7 -23 -10 -6 -14 -11 -9 -11 5 0 3 -7 -4 -15 -10
-12 -16 -13 -26 -4 -10 8 -14 8 -14 0 0 -23 -2 -27 -23 -49 -11 -12 -26 -21
-33 -18 -6 2 -19 -5 -28 -15 -9 -11 -21 -17 -26 -14 -6 3 -10 2 -10 -4 0 -5
-8 -8 -17 -7 -10 2 -28 -5 -40 -14 -15 -12 -37 -17 -70 -15 -26 1 -53 -2 -60
-7 -7 -6 -16 -2 -26 12 -8 12 -18 17 -21 12 -7 -12 -23 -10 -53 6 -13 7 -23
10 -23 6 0 -3 -7 -1 -15 6 -8 7 -15 9 -15 4 0 -5 -11 4 -24 19 -14 16 -27 27
-29 25 -10 -7 -77 64 -71 74 5 7 2 9 -8 5 -10 -3 -15 0 -14 11 0 10 -5 16 -14
14 -8 -2 -12 0 -7 4 4 4 0 18 -8 31 -9 13 -12 23 -9 23 4 0 0 8 -8 18 -9 9
-14 26 -12 36 1 11 0 25 -4 30 -14 23 -8 117 8 129 14 10 18 31 11 47 -2 3 -4
13 -6 23 -2 13 0 15 9 8 16 -14 38 20 25 40 -7 12 -9 12 -9 0 0 -8 -3 -11 -6
-8 -4 4 -1 13 6 22 7 8 9 15 5 15 -4 0 -2 6 5 14 6 8 18 12 25 9 10 -3 13 1
10 15 -2 12 7 29 22 43 29 28 26 27 46 10 17 -13 22 -7 19 20 -1 4 8 15 18 24
11 10 20 15 20 10 0 -4 7 -1 17 6 9 8 18 13 20 12 9 -8 23 -1 21 9 -2 8 9 13
30 12 17 0 32 3 32 7 0 4 9 6 20 4 11 -2 22 1 25 6 4 5 12 6 18 2 7 -4 19 -8
27 -8z m234 -83 c3 -5 -1 -9 -9 -9 -8 0 -12 4 -9 9 3 4 7 8 9 8 2 0 6 -4 9 -8z"/>
<path d="M1996 5383 c-9 -9 -33 -14 -73 -16 -17 -1 -31 -4 -31 -7 2 -20 -4
-28 -19 -25 -10 1 -24 -2 -30 -8 -7 -5 -13 -6 -13 -2 0 4 -6 2 -14 -4 -8 -7
-13 -21 -11 -31 4 -18 -17 -34 -29 -22 -22 21 -60 -3 -62 -40 -3 -40 -4 -41
-19 -28 -8 7 -16 10 -16 6 -5 -23 -5 -33 2 -45 9 -19 -19 -63 -35 -54 -6 3 -2
-3 8 -15 11 -12 14 -22 8 -22 -7 0 -11 -3 -11 -7 3 -20 -2 -33 -13 -31 -8 2
-12 -16 -13 -54 0 -31 2 -55 6 -52 9 5 19 -22 11 -30 -12 -12 -10 -35 4 -47 8
-6 12 -15 9 -19 -2 -4 11 -25 30 -47 19 -22 32 -42 30 -45 -3 -3 11 -19 30
-37 19 -17 35 -26 35 -19 0 8 5 6 11 -4 5 -9 16 -15 24 -12 10 4 13 0 10 -16
-2 -13 -2 -20 2 -16 3 3 12 1 20 -5 7 -6 13 -8 13 -5 0 4 10 1 23 -6 27 -15
39 -17 52 -7 11 8 37 -3 36 -15 -3 -17 1 -18 19 -1 15 14 20 15 20 4 0 -11 2
-11 10 1 8 12 10 12 10 1 0 -8 9 -2 21 13 11 14 26 26 32 26 6 0 1 -7 -11 -16
-27 -19 -28 -33 -2 -31 11 1 20 6 20 11 0 5 3 6 7 3 3 -4 13 -1 21 5 14 12 18
14 54 21 9 2 25 11 36 20 10 9 22 14 25 10 11 -10 45 27 42 45 -3 22 16 34 32
20 7 -6 14 -8 14 -4 1 3 3 11 4 16 1 6 3 15 4 21 0 5 7 7 14 3 9 -6 9 -5 0 8
-11 12 -10 18 5 32 10 9 21 14 24 11 3 -3 4 8 3 25 -1 17 1 33 6 36 5 3 7 10
4 15 -4 5 1 12 10 15 13 6 14 8 3 15 -10 7 -10 9 2 9 13 0 13 1 0 10 -11 7
-11 10 -2 10 8 0 3 9 -10 23 -13 12 -17 16 -8 10 9 -7 19 -13 22 -13 8 0 4 78
-4 86 -4 3 -5 11 -4 17 2 7 1 8 -2 4 -2 -4 -10 0 -17 10 -7 10 -10 22 -7 28
13 21 10 34 -6 27 -15 -5 -15 -4 -3 11 7 9 11 18 7 18 -40 8 -57 21 -46 34 8
9 8 15 0 20 -6 3 -7 12 -3 18 4 7 0 6 -10 -2 -9 -7 -17 -10 -17 -5 0 4 -11 -3
-25 -16 l-25 -24 -22 22 c-21 20 -21 22 -5 40 15 16 15 21 4 31 -11 9 -17 8
-26 -3 -8 -9 -8 -16 -2 -20 6 -4 8 -13 4 -22 -4 -12 -9 -10 -22 8 -9 13 -16
25 -16 28 -1 18 -39 58 -50 53 -10 -3 -13 1 -10 16 2 12 0 19 -6 16 -5 -4 -15
-3 -21 2 -7 4 -20 8 -28 8 -8 0 -20 3 -26 7 -6 4 -14 4 -18 1z m44 -19 c26 -1
52 -16 41 -23 -6 -4 -2 -12 9 -19 16 -10 20 -10 20 0 0 7 6 4 14 -7 7 -11 13
-22 12 -25 -2 -8 38 -56 49 -59 6 -1 20 -12 33 -23 22 -21 22 -21 45 -2 19 18
28 20 53 15 4 0 1 -7 -5 -15 -10 -12 -8 -17 11 -27 13 -7 27 -12 32 -11 5 2 4
-4 -3 -12 -10 -12 -9 -16 5 -24 11 -6 13 -11 5 -16 -8 -5 -5 -17 11 -39 12
-17 23 -46 23 -64 1 -30 0 -32 -16 -17 -9 8 -20 11 -23 6 -3 -5 3 -17 13 -26
15 -13 22 -61 11 -73 -1 -2 -4 -7 -5 -13 -1 -5 -4 -12 -5 -15 -1 -3 -3 -13 -4
-23 -1 -23 -22 -49 -49 -64 -15 -8 -18 -7 -12 3 6 8 4 10 -5 4 -8 -5 -11 -4
-7 2 3 5 0 10 -7 10 -8 0 -13 -7 -11 -16 1 -9 8 -15 15 -13 6 1 9 -2 6 -7 -4
-5 -2 -13 4 -16 6 -4 9 -1 8 6 -2 6 3 14 10 16 11 4 12 1 3 -15 -6 -10 -7 -23
-3 -28 4 -5 0 -4 -7 3 -19 17 -51 -1 -46 -26 4 -20 -21 -49 -32 -37 -3 3 -15
-2 -25 -11 -11 -9 -25 -18 -33 -20 -8 -2 -21 -4 -29 -6 -8 -2 -21 -9 -30 -16
-9 -7 -16 -10 -16 -7 0 4 -10 2 -22 -4 -22 -11 -22 -11 1 8 17 14 20 21 12 27
-7 4 -22 -1 -34 -12 -12 -11 -29 -19 -37 -18 -8 1 -24 -6 -34 -14 -11 -9 -16
-11 -12 -4 8 14 -30 38 -38 24 -7 -11 -24 -9 -53 7 -13 7 -23 10 -23 6 0 -3
-7 -1 -15 6 -8 7 -13 16 -10 20 3 4 -2 13 -10 20 -12 10 -15 10 -15 -1 0 -11
-2 -11 -9 0 -5 8 -17 16 -26 17 -21 3 -56 34 -50 44 2 4 -7 17 -20 30 -13 13
-22 26 -20 30 3 5 -2 11 -11 14 -8 3 -13 10 -10 15 3 5 0 14 -8 20 -14 12 -16
35 -3 47 3 4 1 16 -5 28 -13 23 -18 107 -6 100 4 -3 14 8 22 24 11 21 12 32 4
40 -8 8 -7 13 5 18 9 3 15 10 12 14 -3 5 -1 11 5 15 6 4 8 11 5 16 -4 5 -8 18
-10 30 -3 16 -1 18 8 10 19 -15 34 0 32 32 -1 15 5 33 13 40 18 15 16 15 33 0
20 -16 44 0 44 29 0 13 6 24 13 24 6 1 14 3 17 4 3 1 14 3 26 4 11 0 26 8 32
16 7 8 21 16 32 17 33 3 54 9 61 16 4 3 12 3 18 -1 6 -4 18 -7 26 -8z m174
-95 c-3 -5 -10 -7 -15 -3 -5 3 -7 10 -3 15 3 5 10 7 15 3 5 -3 7 -10 3 -15z"/>
<path d="M1996 5363 c-4 -4 -12 -8 -19 -9 -47 -10 -62 -15 -76 -27 -9 -8 -24
-13 -33 -12 -10 2 -20 -1 -24 -6 -3 -5 -9 -7 -14 -4 -5 3 -7 -4 -5 -15 4 -23
-32 -54 -49 -42 -24 18 -41 7 -41 -26 0 -32 -20 -56 -38 -45 -5 3 -4 -4 2 -15
7 -14 8 -23 1 -27 -6 -4 -8 -10 -5 -15 3 -5 -3 -13 -12 -19 -11 -6 -13 -11 -5
-11 18 0 11 -30 -13 -58 -23 -27 -27 -78 -7 -109 8 -13 9 -23 3 -27 -5 -3 -8
-12 -7 -19 3 -21 17 -38 27 -32 5 4 9 1 9 -4 0 -6 -6 -11 -12 -11 -7 0 -5 -5
5 -11 9 -6 15 -14 13 -18 -3 -5 6 -18 19 -31 13 -13 22 -26 20 -30 -6 -10 19
-31 42 -35 10 -2 20 -4 23 -5 3 -1 8 -2 11 -2 9 2 37 -31 38 -43 1 -5 9 -10
19 -10 9 0 23 -6 30 -15 10 -13 11 -13 6 3 -5 13 -2 16 10 11 9 -3 13 -11 9
-18 -5 -7 -2 -7 8 1 12 10 20 9 37 -2 11 -9 23 -11 26 -6 4 5 14 8 24 6 9 -1
27 7 39 18 18 16 25 18 38 7 8 -7 12 -17 8 -24 -4 -6 1 -4 11 4 10 8 23 15 30
17 6 1 18 4 27 6 10 1 25 9 34 17 10 8 25 15 34 15 10 0 16 9 16 23 0 13 8 29
18 36 15 11 15 15 3 25 -31 26 0 62 32 38 16 -13 51 18 47 41 -1 9 1 22 5 27
5 6 9 13 9 18 1 4 1 8 2 10 9 22 2 60 -13 73 -14 13 -15 20 -7 31 8 9 15 10
24 3 9 -7 12 -3 11 16 -1 15 -10 32 -21 40 -10 8 -15 14 -11 14 5 0 3 6 -3 13
-6 8 -8 17 -4 20 3 4 1 13 -5 20 -7 8 -9 16 -7 19 3 3 -6 13 -20 22 -21 14
-24 20 -15 31 17 21 -15 13 -40 -10 -20 -18 -21 -18 -43 3 -12 11 -26 22 -32
23 -23 4 -35 12 -30 19 3 4 -2 13 -10 20 -8 7 -13 16 -10 20 3 4 -2 13 -10 20
-8 7 -15 9 -15 6 0 -4 -10 0 -22 9 -13 8 -23 21 -23 28 0 6 -9 12 -20 12 -11
0 -25 3 -31 7 -6 4 -14 4 -18 1z m47 -18 c9 2 15 -1 12 -5 -5 -8 41 -46 58
-49 4 -1 7 -4 8 -8 0 -5 7 -15 15 -24 8 -9 12 -18 9 -21 -3 -3 6 -13 20 -22
14 -9 25 -13 25 -9 0 3 11 -4 25 -17 l25 -23 27 24 c14 13 23 19 20 12 -4 -6
5 -21 19 -32 15 -12 21 -21 13 -21 -11 0 -11 -2 1 -10 8 -5 16 -15 16 -22 1
-7 3 -16 4 -20 4 -13 7 -27 9 -38 0 -6 6 -9 12 -8 6 2 13 -5 14 -15 2 -9 0
-15 -5 -12 -4 2 -15 -4 -24 -14 -15 -16 -15 -19 2 -35 15 -13 22 -51 13 -73
-1 -2 -1 -6 -2 -10 0 -5 -4 -12 -9 -18 -4 -5 -6 -18 -5 -27 4 -24 -21 -44 -37
-30 -21 17 -24 17 -41 4 -16 -13 -17 -28 -4 -50 5 -7 2 -19 -8 -28 -14 -14
-18 -14 -33 -3 -10 8 -7 4 6 -8 13 -14 18 -23 10 -23 -9 0 -9 -3 2 -11 13 -9
13 -10 0 -6 -8 2 -23 -3 -33 -11 -10 -9 -26 -17 -35 -19 -36 -8 -42 -9 -48
-16 -4 -4 -16 0 -26 10 -17 15 -19 15 -39 -3 -12 -10 -29 -19 -38 -19 -9 0
-21 -4 -28 -8 -6 -4 -15 -2 -20 5 -8 13 -29 18 -90 21 -17 1 -30 4 -28 8 3 3
-7 17 -20 29 -14 13 -25 20 -25 16 0 -5 -7 -3 -15 4 -8 7 -15 9 -15 6 0 -4 -9
-2 -21 4 -11 7 -18 14 -15 18 4 3 -6 18 -21 34 -15 15 -23 28 -19 28 4 0 4 6
-1 13 -4 6 -8 19 -8 27 0 8 -6 15 -14 15 -16 0 -24 32 -10 41 5 3 4 15 -3 27
-19 35 -16 80 6 105 12 13 22 36 22 50 1 15 3 28 4 30 1 1 4 7 5 12 1 6 4 13
5 18 1 4 2 11 1 16 -1 5 7 15 17 22 13 9 19 23 17 43 -2 22 1 28 14 26 9 -2
17 -4 19 -5 14 -12 52 12 48 31 -3 13 26 37 42 34 9 -1 24 4 33 12 14 12 29
17 76 27 7 1 16 5 19 9 4 4 12 3 18 -2 6 -5 19 -7 29 -6z"/>
<path d="M1992 5338 c-7 -7 -12 -8 -12 -3 0 4 -9 0 -20 -10 -15 -14 -20 -15
-20 -4 0 11 -2 11 -10 -1 -5 -8 -10 -11 -10 -6 0 5 -7 2 -17 -5 -9 -8 -26 -14
-37 -14 -12 0 -21 -4 -21 -10 0 -5 -9 -22 -18 -37 -18 -26 -31 -30 -54 -15
-14 9 -15 7 -17 -22 0 -10 -9 -27 -18 -37 -9 -11 -17 -22 -17 -26 -1 -5 -2
-10 -2 -13 -1 -3 -3 -9 -4 -15 -1 -5 -4 -11 -5 -12 -1 -2 -3 -15 -4 -30 0 -14
-10 -37 -22 -50 -22 -25 -25 -70 -6 -104 6 -12 8 -24 5 -28 -10 -10 -13 -37
-3 -31 11 7 33 -22 26 -34 -4 -5 -2 -12 4 -16 6 -4 8 -10 5 -15 -3 -4 9 -20
26 -34 17 -14 25 -26 18 -26 -15 0 -6 -11 13 -14 7 -1 19 -5 26 -9 6 -5 12 -5
12 -1 0 4 14 -5 30 -21 17 -16 41 -30 53 -31 12 -1 32 -5 45 -8 12 -3 20 -1
17 4 -3 4 1 10 7 13 10 3 10 8 -2 23 -14 18 -14 18 3 5 11 -8 15 -21 12 -32
-4 -11 -2 -19 5 -19 6 0 8 -5 4 -12 -6 -10 -4 -10 7 -2 8 6 22 10 31 9 9 -2
26 8 39 21 22 24 22 24 36 4 8 -12 19 -17 26 -13 11 7 17 9 52 16 8 2 23 11
35 22 l20 18 -21 23 c-11 12 -16 25 -11 28 5 3 15 -1 22 -9 10 -12 16 -13 26
-4 8 6 11 16 7 23 -14 21 -11 35 9 53 24 22 21 21 42 4 19 -16 30 -8 32 20 1
10 3 21 4 24 1 3 4 10 5 15 1 6 4 11 5 13 1 1 3 15 4 30 2 19 -4 34 -19 45
l-21 16 30 29 c17 16 26 26 19 23 -7 -4 -17 3 -23 14 -6 11 -8 20 -4 20 3 0 1
6 -5 13 -6 8 -8 17 -4 21 4 3 -2 13 -13 21 -10 8 -15 15 -10 15 5 0 1 9 -9 20
-17 19 -19 19 -37 3 -17 -15 -20 -15 -43 7 -14 13 -25 20 -25 16 0 -4 -14 2
-30 14 -17 12 -28 25 -25 30 3 4 -2 13 -10 20 -8 7 -12 17 -8 23 3 5 2 7 -4 4
-5 -3 -26 8 -46 24 -20 17 -37 27 -37 24 0 -4 -6 -3 -13 4 -10 8 -17 7 -25 -1z
m38 -13 c0 4 23 -12 50 -35 28 -23 48 -46 45 -50 -6 -9 47 -53 62 -52 4 1 18
-9 30 -20 22 -20 24 -20 41 -4 17 15 20 15 32 1 7 -8 9 -15 5 -15 -5 0 0 -9
10 -20 10 -11 15 -20 10 -20 -4 0 -2 -7 5 -15 7 -8 9 -15 5 -15 -4 0 0 -11 9
-25 15 -23 15 -25 -10 -41 l-26 -18 24 -17 c24 -18 31 -55 15 -76 -5 -7 -6
-13 -1 -13 5 0 0 -7 -10 -15 -14 -11 -16 -15 -5 -15 12 0 12 -2 -1 -10 -12 -8
-12 -10 -1 -10 8 0 11 -3 8 -6 -4 -4 -14 -1 -23 7 -21 18 -18 18 -47 -9 -25
-24 -28 -36 -14 -59 11 -18 -9 -25 -23 -8 -10 12 -16 13 -27 4 -11 -10 -10
-15 7 -34 l20 -22 -20 -18 c-11 -10 -20 -15 -20 -11 0 4 -10 2 -21 -5 -17 -9
-20 -8 -17 3 3 7 10 13 16 13 7 0 11 5 10 10 -2 6 -7 9 -11 7 -5 -1 -6 2 -3 6
3 5 -4 18 -17 28 l-22 19 20 -25 19 -25 -24 22 c-30 28 -19 43 12 17 20 -17
21 -17 9 -1 -18 22 -57 46 -46 26 5 -8 4 -10 -3 -5 -8 5 -10 1 -6 -11 6 -16 4
-15 -10 2 -10 11 -14 13 -10 5 7 -13 6 -13 -11 0 -17 13 -18 13 -10 0 8 -13 7
-13 -10 0 -15 12 -17 12 -10 1 6 -10 4 -12 -6 -6 -11 7 -11 5 1 -10 13 -17 13
-18 0 -11 -8 4 -7 1 3 -7 10 -9 14 -18 8 -21 -5 -3 -12 0 -14 6 -4 8 -6 9 -6
2 -1 -6 7 -18 16 -25 14 -12 16 -12 8 0 -6 10 -4 12 5 6 8 -5 11 -4 7 2 -4 7
5 10 23 8 18 -2 27 1 23 8 -4 6 -1 7 8 2 11 -7 11 -5 -1 11 -14 17 -14 18 2 6
9 -7 15 -22 13 -33 -2 -12 0 -17 7 -13 6 4 5 -3 -2 -16 l-12 -23 -17 22 -17
22 -22 -24 c-26 -27 -79 -31 -74 -5 3 19 -34 53 -42 39 -4 -5 -2 -13 4 -16 18
-11 -9 -36 -29 -27 -9 5 -23 8 -31 7 -8 -1 -30 12 -47 29 -18 16 -33 26 -33
22 0 -5 -6 -3 -13 3 -8 6 -17 7 -21 3 -4 -4 -7 -2 -6 3 5 22 -1 45 -11 45 -5
0 -7 -6 -3 -12 4 -7 -2 -5 -14 6 -12 10 -19 22 -17 27 3 4 1 10 -5 14 -6 4 -8
11 -4 16 3 6 -4 21 -16 34 -14 15 -18 25 -10 30 8 5 7 14 -5 31 -14 21 -14 24
0 24 8 0 15 4 15 10 0 5 -6 8 -12 6 -7 -1 -9 -1 -4 2 4 2 2 8 -5 13 -10 6 -11
9 -1 9 6 0 12 5 12 11 0 5 -6 7 -12 3 -7 -4 -2 5 12 20 14 15 26 40 26 54 1
15 3 28 4 30 1 1 4 7 5 12 1 6 3 12 4 15 0 3 1 8 2 13 0 4 8 16 18 27 10 11
17 28 16 38 -2 11 1 14 8 10 7 -4 17 -8 24 -9 14 -2 65 61 56 69 -3 4 4 5 15
2 11 -2 26 3 32 10 6 7 20 12 30 10 10 -2 24 3 30 11 7 7 16 12 20 9 5 -3 12
-1 15 5 5 8 11 7 21 -1 8 -6 14 -8 14 -4z m64 -585 c5 -5 8 -10 6 -11 -3 0
-13 -2 -23 -4 -9 -2 -22 5 -27 15 -9 16 -7 18 12 15 12 -3 26 -9 32 -15z"/>
<path d="M1995 5320 c-3 -6 -10 -8 -15 -5 -4 3 -13 -2 -20 -9 -6 -8 -20 -13
-30 -11 -10 2 -24 -3 -30 -11 -7 -7 -16 -12 -20 -9 -5 3 -22 -13 -39 -34 -23
-29 -38 -39 -53 -36 -11 3 -18 1 -14 -2 3 -4 -4 -17 -16 -30 -12 -13 -18 -23
-14 -23 5 0 2 -7 -5 -17 -8 -9 -13 -18 -11 -20 1 -1 2 -4 1 -5 -1 -2 -2 -15
-3 -29 0 -15 -8 -35 -16 -45 -17 -21 -19 -42 -6 -62 5 -8 4 -18 -2 -24 -7 -7
-8 -17 -2 -29 7 -12 6 -20 -1 -24 -7 -5 -3 -15 11 -30 11 -12 20 -26 19 -31
-1 -5 0 -12 1 -16 1 -5 3 -14 4 -20 1 -7 8 -12 15 -10 16 3 43 -17 36 -28 -3
-4 2 -13 10 -20 8 -7 15 -9 15 -4 0 4 15 -6 33 -22 17 -17 39 -30 47 -29 8 1
22 -2 31 -6 20 -10 32 0 19 16 -7 9 -6 16 2 23 17 13 71 -31 57 -45 -7 -7 -1
-9 16 -9 14 1 35 13 48 26 19 21 19 22 1 7 -20 -16 -22 -16 -36 0 -16 18 -18
58 -6 79 4 6 20 10 35 9 15 -1 33 2 39 7 13 10 77 -39 69 -52 -3 -4 2 -13 10
-20 8 -7 12 -17 8 -24 -4 -6 1 -5 10 3 17 13 16 15 -3 36 -20 21 -20 22 -2 38
17 15 19 15 37 -1 11 -10 14 -11 8 -2 -18 24 -17 30 12 60 16 17 35 27 46 25
11 -2 17 0 14 5 -3 5 3 13 12 19 14 8 15 11 3 11 -13 1 -13 2 0 13 23 18 18
52 -9 74 l-25 20 28 18 c23 15 26 21 14 29 -7 6 -13 18 -13 26 1 8 -3 21 -8
28 -5 6 -6 12 -2 12 5 0 1 8 -8 18 -14 16 -17 21 -17 39 0 3 -9 -2 -20 -12
-20 -18 -21 -18 -43 3 -12 11 -26 21 -32 21 -16 0 -76 51 -70 60 2 5 -15 25
-40 46 -25 20 -45 33 -45 29 0 -3 -6 -1 -14 5 -10 8 -16 9 -21 1z m35 -14 c1
5 9 0 18 -11 10 -11 27 -25 37 -31 11 -6 18 -14 17 -19 -2 -4 8 -20 23 -35 26
-27 27 -30 12 -53 -12 -19 -13 -24 -2 -24 8 0 12 4 9 9 -3 4 1 5 9 2 8 -3 18
-1 22 5 3 7 0 8 -9 5 -9 -3 -16 -2 -16 3 0 17 13 23 27 12 7 -6 13 -8 13 -3 0
4 11 -3 25 -16 25 -23 25 -23 47 -4 12 10 18 14 15 8 -4 -7 0 -17 8 -24 8 -7
13 -16 10 -20 -3 -5 -1 -11 4 -15 5 -3 8 -15 6 -26 -2 -11 2 -22 10 -26 12 -4
9 -10 -11 -26 l-27 -21 24 -20 c28 -25 31 -34 16 -61 -6 -11 -11 -23 -12 -27
0 -11 -25 -33 -25 -23 0 5 -16 -6 -35 -25 -19 -18 -31 -38 -28 -44 3 -6 2 -8
-2 -3 -5 4 -18 -2 -31 -14 l-22 -20 -18 23 c-17 21 -32 26 -49 18 -3 -1 -18
-3 -33 -4 -37 -1 -62 -22 -57 -46 2 -11 0 -22 -6 -25 -5 -3 3 -16 18 -29 19
-16 22 -23 10 -23 -9 0 -15 3 -14 7 1 4 -12 18 -28 32 -29 25 -31 25 -52 9
-19 -16 -19 -19 -4 -29 14 -11 13 -11 -4 -4 -11 5 -27 8 -35 7 -8 -1 -28 11
-45 26 -16 16 -33 28 -37 29 -5 0 -8 3 -9 8 -1 16 -34 42 -46 37 -8 -2 -11 -1
-8 4 3 5 1 12 -5 16 -6 4 -8 11 -4 16 3 6 -4 21 -16 34 -14 15 -18 25 -11 30
8 4 8 12 1 26 -9 15 -7 21 5 25 13 5 14 9 3 23 -17 21 -16 44 2 66 8 10 16 30
16 44 1 14 2 27 3 29 1 1 0 4 -1 5 -2 2 3 11 11 20 7 10 10 17 5 17 -4 0 3 11
16 25 12 13 26 22 31 19 4 -2 22 14 40 36 17 21 35 37 39 35 4 -3 13 2 20 9 6
8 20 13 30 11 10 -2 24 3 30 11 7 7 16 12 20 9 5 -3 12 -1 15 5 5 8 11 7 21
-1 8 -6 14 -8 14 -3z m161 -583 c13 -16 12 -17 -3 -4 -10 7 -18 15 -18 17 0 8
8 3 21 -13z"/>
<path d="M1995 5300 c-3 -6 -10 -8 -15 -5 -4 3 -13 -1 -19 -9 -7 -8 -20 -13
-29 -11 -9 1 -25 -5 -36 -14 -10 -9 -20 -15 -22 -13 -2 1 -18 -14 -35 -33 -17
-19 -35 -33 -39 -30 -4 3 -13 -2 -20 -10 -10 -12 -10 -18 1 -31 11 -14 10 -15
-6 -12 -11 1 -20 -3 -21 -9 -1 -7 -3 -14 -4 -15 -1 -2 -3 -15 -4 -29 0 -14 -8
-34 -16 -44 -18 -22 -19 -45 -2 -67 11 -14 11 -18 -5 -27 -10 -6 -13 -11 -6
-11 12 0 12 -24 0 -36 -4 -4 2 -17 13 -29 12 -12 20 -27 18 -32 -2 -5 12 -22
30 -37 18 -16 29 -33 25 -39 -3 -7 -2 -9 2 -4 5 4 24 -7 42 -25 19 -18 36 -32
39 -31 3 1 20 13 39 27 28 22 35 23 45 11 16 -19 30 -10 25 14 -5 26 30 56 66
57 16 1 30 3 32 4 1 1 15 3 30 4 19 2 26 -1 23 -9 -2 -7 1 -18 7 -24 8 -8 26
4 69 46 32 32 62 57 66 56 4 -2 7 0 7 5 1 4 6 17 13 29 11 20 10 22 -5 16 -15
-6 -16 -4 -6 9 11 12 9 18 -7 33 l-20 18 21 23 c12 12 16 24 11 28 -6 3 -9 14
-7 24 1 9 -2 23 -8 30 -5 6 -6 12 -2 12 4 0 2 7 -5 15 -10 12 -16 13 -27 4
-11 -9 -18 -7 -36 9 -21 20 -23 20 -45 2 -19 -15 -29 -17 -61 -11 -2 1 2 8 10
17 10 13 10 17 -2 25 -13 8 -5 14 16 9 6 -1 -3 12 -18 28 -16 17 -29 34 -28
39 1 4 -4 8 -10 8 -5 0 -19 11 -29 25 -11 14 -20 21 -20 16 0 -5 -6 -3 -14 3
-10 8 -16 9 -21 1z m41 -12 c5 4 6 3 2 -2 -8 -10 31 -43 45 -38 5 1 6 -2 3 -6
-3 -5 3 -17 14 -27 14 -13 17 -22 9 -31 -7 -8 -7 -14 1 -19 8 -5 8 -11 0 -20
-25 -30 38 -41 68 -11 15 14 18 14 39 -6 18 -17 25 -19 38 -8 8 7 16 10 16 6
3 -13 7 -26 9 -31 1 -3 3 -13 4 -22 1 -10 5 -23 8 -29 4 -6 -1 -19 -12 -29
-20 -18 -20 -18 1 -41 14 -15 17 -24 9 -29 -8 -5 -8 -10 0 -20 8 -9 8 -15 0
-20 -6 -3 -7 -11 -4 -17 4 -6 3 -8 -3 -5 -5 3 -34 -18 -63 -48 -29 -30 -57
-52 -62 -49 -5 3 -4 12 3 20 8 10 8 14 0 15 -40 5 -57 5 -66 0 -5 -3 -22 -6
-37 -6 -35 0 -78 -40 -72 -68 3 -19 2 -20 -13 -5 -15 15 -18 15 -47 -6 -17
-12 -36 -22 -42 -22 -16 1 -136 116 -121 116 6 0 -2 13 -17 29 -16 17 -23 31
-17 35 5 4 8 15 6 26 -2 11 1 22 6 26 6 4 5 11 -2 21 -19 22 -18 51 2 69 9 8
16 26 14 40 -1 13 2 27 7 30 4 3 5 11 1 17 -4 8 -2 8 9 -1 13 -10 17 -10 21 2
3 7 1 18 -5 24 -11 11 -1 35 12 27 4 -3 24 13 44 35 20 22 36 35 36 28 0 -7 7
-3 15 9 9 13 23 20 35 18 10 -2 24 3 30 11 7 7 16 12 20 9 5 -3 12 -1 15 5 5
8 11 8 19 1 7 -6 17 -7 22 -3z"/>
<path d="M1995 5280 c-3 -6 -10 -8 -15 -5 -4 3 -13 -2 -20 -9 -6 -8 -20 -13
-31 -11 -11 2 -23 -4 -29 -16 -6 -11 -15 -17 -19 -15 -4 3 -24 -13 -44 -35
-20 -22 -37 -34 -37 -28 0 7 -3 10 -6 6 -3 -3 -2 -12 2 -19 12 -19 14 -38 3
-39 -5 -1 -14 -2 -21 -3 -7 0 -12 -13 -13 -27 0 -14 -6 -34 -14 -43 -19 -23
-21 -53 -4 -67 7 -6 10 -16 6 -23 -4 -6 -8 -18 -8 -26 0 -8 -3 -20 -7 -26 -4
-6 4 -21 17 -34 13 -13 22 -26 20 -30 -6 -10 91 -103 110 -106 9 -1 19 4 22
12 3 8 9 12 13 9 4 -3 13 2 20 10 10 12 16 13 28 3 9 -7 13 -8 9 -2 -10 17 51
69 84 70 16 1 31 3 34 4 14 7 52 5 68 -3 15 -7 16 -11 6 -25 -7 -9 17 12 54
47 48 47 64 68 56 77 -7 8 -6 14 1 19 8 5 5 14 -9 29 l-21 23 20 18 c12 11 17
22 11 29 -5 6 -7 19 -6 28 2 10 -1 20 -6 24 -5 3 -6 11 -3 17 4 7 -1 4 -11 -5
-17 -16 -19 -15 -38 8 -18 23 -21 24 -37 9 -9 -8 -26 -17 -38 -20 -24 -4 -60
29 -42 40 8 5 8 10 0 20 -8 10 -8 15 0 20 13 8 -7 33 -62 76 -22 18 -39 25
-43 19z m94 -74 c9 -10 9 -16 1 -21 -8 -5 -8 -11 1 -21 9 -11 8 -15 -5 -20
-13 -5 -11 -10 11 -27 35 -28 48 -29 77 -6 21 16 25 17 36 4 7 -8 9 -15 4 -15
-5 0 -2 -4 6 -10 9 -5 19 -5 27 2 14 11 15 10 17 -21 0 -11 4 -23 9 -27 4 -4
-2 -17 -13 -29 l-20 -22 20 -18 c14 -13 17 -21 9 -31 -7 -8 -7 -14 1 -19 8 -5
-5 -24 -35 -55 -43 -44 -50 -47 -69 -36 -18 11 -59 14 -68 6 -8 -7 -56 -5 -52
2 13 21 -10 4 -42 -32 -20 -22 -40 -38 -44 -35 -4 3 -13 -2 -20 -9 -6 -8 -20
-13 -32 -11 -14 3 -18 0 -15 -9 10 -26 -20 -10 -66 34 -26 24 -44 46 -42 50 2
4 -7 17 -20 30 -13 13 -21 28 -17 34 4 6 7 18 7 26 0 8 4 20 8 26 4 7 1 17 -6
23 -17 14 -15 45 5 68 8 10 14 28 13 40 -1 13 0 21 3 18 11 -11 41 17 37 35
-4 20 48 85 68 85 5 0 15 9 23 19 10 14 14 16 14 5 0 -12 2 -12 10 1 8 13 10
13 10 0 0 -10 5 -7 16 8 8 12 19 20 24 17 5 -3 12 -1 15 5 6 10 67 -31 94 -64z"/>
<path d="M1996 5261 c-4 -6 -11 -9 -16 -6 -5 3 -14 -3 -19 -14 -6 -11 -19 -18
-28 -16 -10 1 -26 -4 -35 -13 -10 -8 -18 -12 -18 -9 0 4 -13 -7 -29 -24 -17
-18 -28 -38 -26 -50 2 -11 -5 -25 -16 -33 -11 -8 -21 -21 -23 -29 -1 -9 -11
-26 -21 -37 -12 -14 -14 -20 -6 -18 7 2 16 -3 19 -11 2 -8 0 -11 -6 -7 -17 10
-23 -11 -7 -24 8 -7 12 -17 8 -24 -4 -6 -8 -18 -8 -26 0 -8 -3 -20 -7 -26 -4
-6 4 -21 17 -34 13 -13 23 -26 20 -30 -2 -3 16 -25 40 -48 24 -23 42 -35 39
-28 -4 10 3 13 25 11 17 -1 36 4 42 11 6 8 15 12 19 9 5 -3 24 14 44 36 25 30
39 39 48 32 12 -8 30 -10 43 -3 16 8 53 5 71 -6 19 -11 25 -8 64 31 27 28 38
45 30 50 -8 5 -8 11 -1 19 8 10 5 18 -9 31 l-20 18 21 23 c12 13 16 24 10 28
-5 4 -8 15 -6 26 3 14 0 18 -8 13 -18 -11 -37 -12 -38 -2 -1 5 -2 14 -3 19 -1
13 -16 11 -40 -6 -13 -9 -16 -17 -10 -27 5 -7 1 -4 -8 6 -10 11 -18 15 -18 10
0 -6 -15 4 -34 21 -29 26 -32 33 -19 43 10 8 11 13 3 18 -8 5 -8 11 -1 19 8 9
4 19 -14 36 -14 13 -25 20 -25 16 0 -5 -8 2 -18 15 -13 15 -21 19 -26 10z m44
-37 c0 5 9 1 20 -9 13 -12 17 -22 11 -28 -5 -5 -7 -15 -5 -22 3 -7 0 -16 -6
-20 -8 -5 2 -19 27 -42 21 -19 40 -35 43 -35 11 1 29 -21 24 -29 -3 -5 -1 -9
4 -9 14 0 22 26 11 37 -6 6 -1 17 13 29 13 10 20 15 16 10 -13 -15 11 -45 32
-41 11 2 18 0 15 -5 -3 -5 0 -12 6 -15 7 -5 3 -15 -10 -29 l-21 -23 20 -18
c14 -13 17 -21 9 -31 -7 -8 -7 -14 1 -19 8 -5 -1 -21 -25 -45 -34 -35 -40 -37
-59 -26 -18 11 -55 14 -71 6 -14 -7 -31 -5 -43 4 -10 7 -24 -2 -53 -35 -22
-24 -38 -38 -34 -31 10 19 -9 14 -22 -6 -15 -26 -74 -22 -113 6 -17 13 -28 27
-26 31 3 4 -6 18 -19 31 -15 14 -21 27 -16 34 5 6 7 19 6 28 -2 10 1 21 7 24
5 3 2 15 -9 27 -10 11 -13 17 -6 14 16 -10 27 11 14 27 -8 10 -7 17 4 26 8 7
13 16 10 20 -2 4 6 17 20 30 13 12 22 30 20 41 -5 23 66 84 97 84 11 0 26 9
34 19 10 14 14 16 14 5 1 -10 4 -8 12 5 10 18 11 18 29 -5 10 -13 19 -20 19
-15z"/>
<path d="M1996 5235 c-3 -9 -10 -14 -15 -11 -5 3 -14 -1 -21 -8 -6 -8 -20 -13
-30 -11 -12 2 -26 -5 -35 -18 -8 -12 -15 -18 -15 -13 0 5 -9 1 -19 -8 -11 -10
-18 -26 -16 -36 2 -10 -7 -28 -20 -40 -14 -13 -22 -26 -20 -30 3 -4 -2 -13
-10 -20 -12 -10 -13 -16 -4 -26 9 -11 8 -18 0 -28 -8 -10 -9 -16 -1 -21 6 -3
7 -12 3 -18 -4 -7 -8 -19 -8 -27 0 -8 -3 -20 -7 -26 -4 -6 4 -21 17 -34 13
-13 22 -26 20 -31 -9 -13 49 -45 81 -45 21 1 39 9 53 26 13 16 20 20 21 11 0
-8 16 5 37 28 29 34 38 40 45 28 6 -12 34 -16 46 -7 9 8 51 4 68 -6 19 -11 25
-9 54 21 21 21 28 35 20 40 -8 5 -8 11 -1 19 8 10 5 18 -9 31 l-20 18 20 22
c18 20 19 23 5 35 -8 7 -15 9 -15 4 -1 -5 -9 1 -20 14 -10 12 -21 18 -24 13
-3 -5 1 -12 10 -15 15 -6 15 -8 -1 -26 -20 -22 -40 -22 -40 1 0 8 -6 14 -13
14 -7 0 -22 11 -32 25 -11 14 -20 21 -20 16 0 -4 -9 2 -19 15 -13 17 -16 28
-9 36 5 7 7 17 4 22 -4 5 -2 13 4 16 8 5 7 11 -1 21 -6 7 -15 12 -19 9 -5 -3
-15 4 -23 15 -13 18 -15 19 -21 5z m44 -31 c0 4 5 4 10 1 8 -5 8 -11 1 -19 -6
-7 -8 -16 -4 -19 3 -4 1 -12 -4 -19 -7 -9 -3 -23 14 -47 12 -19 23 -28 23 -21
0 7 9 1 21 -14 11 -14 25 -23 31 -20 6 4 8 2 5 -3 -4 -6 0 -16 8 -23 13 -10
19 -9 36 6 22 20 46 26 54 14 2 -4 -4 -15 -15 -25 -20 -18 -20 -18 1 -41 14
-15 17 -24 9 -29 -8 -5 -8 -11 -1 -19 8 -9 3 -20 -19 -41 -23 -22 -31 -25 -35
-13 -4 10 -18 14 -43 12 -20 -1 -37 -3 -37 -4 0 -1 -8 -3 -18 -5 -9 -2 -15 0
-12 5 3 4 -1 10 -9 13 -7 3 -28 -10 -46 -28 -18 -19 -37 -32 -41 -30 -4 3 -16
-5 -26 -18 -12 -15 -28 -22 -48 -22 -34 1 -78 22 -71 34 3 4 -6 18 -19 31 -13
13 -21 28 -17 34 4 6 7 18 7 26 0 8 4 20 8 27 4 6 3 15 -3 18 -8 5 -7 11 1 21
8 10 9 17 0 28 -9 10 -8 16 4 26 8 7 13 16 10 20 -2 4 6 17 19 29 13 13 23 30
21 39 -3 20 14 44 26 37 4 -3 13 3 19 14 6 12 18 18 29 16 11 -2 25 3 31 11 7
7 16 12 20 9 5 -3 12 0 15 5 5 8 13 6 26 -6 10 -9 19 -14 19 -10z"/>
<path d="M1991 5203 c-7 -12 -10 -14 -11 -4 0 8 -3 11 -6 8 -4 -4 -1 -13 6
-22 12 -15 0 -22 -14 -7 -13 12 -51 8 -63 -8 -6 -8 -17 -15 -25 -15 -7 0 -13
-10 -13 -22 0 -12 -11 -33 -24 -47 -14 -14 -21 -26 -16 -26 4 0 1 -8 -8 -18
-13 -14 -14 -21 -5 -30 8 -8 8 -15 -1 -26 -9 -10 -9 -16 -1 -21 7 -4 8 -11 2
-18 -5 -7 -8 -20 -7 -29 2 -10 -1 -21 -7 -24 -5 -4 0 -16 13 -30 12 -13 26
-21 30 -18 5 3 9 0 9 -5 0 -6 -5 -11 -12 -11 -6 0 -3 -6 7 -14 26 -19 72 -12
101 15 13 12 24 19 24 14 0 -5 17 7 38 26 20 20 43 35 50 33 6 -1 17 -2 23 -3
5 0 7 -6 3 -13 -5 -7 -3 -8 7 -2 22 13 80 12 86 -2 3 -9 12 -6 29 8 16 15 21
25 14 33 -6 7 -6 15 0 21 7 7 4 17 -10 29 l-20 18 21 23 c27 28 1 28 -31 -1
-20 -18 -21 -18 -61 21 -22 21 -42 37 -44 34 -2 -3 -15 12 -29 32 -15 23 -21
40 -15 44 6 3 8 12 5 19 -2 7 -1 16 2 21 4 5 5 8 3 6 -2 -1 -12 5 -22 14 -16
14 -18 14 -28 -3z m36 -32 c1 -11 -2 -23 -8 -26 -7 -5 -4 -14 7 -26 9 -10 14
-19 10 -19 -4 0 1 -9 11 -19 10 -11 21 -19 25 -18 4 1 25 -16 47 -37 l41 -40
27 25 c20 17 23 18 10 3 -16 -20 -16 -22 3 -39 14 -12 17 -22 10 -29 -6 -6 -6
-14 1 -22 7 -9 5 -15 -9 -23 -11 -6 -22 -7 -26 -3 -4 3 -26 7 -49 9 -23 1 -51
4 -62 6 -13 3 -32 -7 -57 -31 -21 -20 -38 -32 -38 -28 0 4 -13 -3 -29 -17 -32
-27 -85 -31 -87 -6 -2 33 -5 39 -15 39 -5 0 -7 -6 -3 -12 4 -7 -2 -5 -14 6
-12 10 -18 24 -14 30 3 6 7 18 7 26 0 8 4 20 8 27 4 6 3 15 -3 18 -8 5 -7 11
1 21 8 10 9 17 0 28 -9 10 -8 16 4 26 8 7 13 16 10 20 -2 4 6 17 20 30 14 13
22 30 20 42 -3 12 -2 18 2 14 4 -3 14 1 23 9 25 22 60 27 67 9 4 -11 8 -12 20
-2 11 9 16 9 24 -3 5 -9 9 -10 9 -2 0 7 -8 17 -17 22 -11 6 -13 11 -5 11 8 0
10 5 6 13 -5 9 -4 9 6 0 8 -7 15 -22 17 -32z"/>
<path d="M1930 5162 c0 -7 -4 -11 -9 -8 -4 3 -16 -3 -26 -14 -10 -11 -14 -20
-10 -20 5 0 -4 -13 -20 -30 -16 -16 -25 -30 -20 -30 4 0 1 -8 -8 -18 -13 -14
-14 -21 -5 -30 8 -8 8 -15 -1 -26 -9 -10 -9 -16 -1 -21 7 -4 8 -11 2 -18 -5
-7 -8 -20 -7 -29 2 -10 -1 -20 -6 -24 -5 -3 -7 -10 -3 -15 3 -5 10 -7 15 -3
17 10 51 -27 39 -41 -19 -23 50 -9 76 16 13 12 24 19 24 14 0 -5 17 7 38 27
20 20 44 34 52 32 8 -1 25 -5 38 -8 13 -3 20 -1 17 5 -4 5 -1 9 4 9 6 0 11 -6
11 -12 0 -10 3 -9 9 1 7 11 9 11 14 0 4 -11 6 -11 6 0 1 11 5 10 16 -5 15 -19
15 -19 8 1 -6 18 -5 19 13 5 17 -14 18 -14 6 2 -9 12 -10 18 -2 23 8 5 6 13
-6 26 -9 10 -21 16 -26 13 -6 -4 -28 11 -50 32 -23 22 -38 33 -34 27 5 -8 1
-13 -10 -13 -10 0 -14 3 -11 7 4 4 -5 19 -20 35 -15 15 -23 28 -18 28 4 0 1 8
-8 18 -14 16 -17 22 -17 38 0 4 -6 1 -14 -5 -11 -10 -17 -8 -25 6 -8 14 -10
15 -11 3 0 -13 -1 -13 -10 0 -7 11 -10 11 -10 2z m36 -25 c4 -4 14 -1 22 6 10
7 13 8 9 1 -4 -7 0 -17 8 -24 8 -7 13 -16 10 -20 -2 -4 6 -17 20 -30 13 -12
22 -30 20 -41 -4 -21 2 -23 25 -9 11 7 23 1 47 -22 17 -16 36 -28 41 -24 5 3
15 -1 21 -8 9 -11 9 -16 -1 -22 -20 -13 -38 -13 -38 -2 0 6 8 7 18 3 12 -4 14
-3 6 5 -12 12 -47 3 -38 -11 3 -5 -1 -6 -9 -3 -8 3 -18 1 -22 -5 -4 -8 -13 -8
-28 1 -12 6 -23 12 -24 12 -1 1 -20 -17 -43 -39 -22 -21 -40 -35 -40 -30 0 5
-11 -1 -23 -14 -23 -21 -73 -39 -63 -22 8 13 -41 54 -56 46 -7 -4 -2 2 12 14
21 16 23 22 12 33 -11 11 -12 10 -7 -4 4 -10 3 -18 -3 -18 -11 0 -11 18 1 37
4 6 3 15 -3 18 -8 5 -7 11 1 21 9 11 9 18 1 26 -9 9 -8 16 5 30 9 10 12 18 8
18 -5 0 4 14 20 30 16 17 25 30 21 30 -5 0 -3 6 3 13 11 14 55 17 67 4z"/>
<path d="M1904 5128 c-3 -4 -2 -8 2 -8 4 0 -5 -13 -21 -30 -16 -16 -25 -30
-20 -30 4 0 1 -8 -8 -18 -13 -14 -14 -21 -5 -30 8 -8 8 -15 0 -25 -9 -10 -9
-16 0 -25 7 -7 8 -12 4 -12 -5 0 -3 -7 4 -15 9 -11 10 -19 1 -28 -8 -10 -4
-20 18 -41 l28 -27 32 26 c17 15 31 23 31 19 0 -4 18 10 40 31 23 22 44 38 48
37 4 -2 14 -8 23 -13 11 -5 23 -2 36 11 12 10 25 16 29 12 5 -4 -4 8 -20 26
-28 30 -31 31 -53 17 -13 -9 -24 -11 -24 -5 -1 5 -2 19 -3 29 0 11 -12 31 -25
45 -14 14 -21 26 -16 26 11 0 -13 25 -25 26 -6 1 -11 3 -12 4 -8 7 -60 6 -64
-2z m64 -8 c1 -1 7 -3 12 -4 6 0 10 -5 9 -9 -1 -5 10 -21 23 -35 13 -15 24
-34 23 -42 -1 -8 3 -23 7 -33 8 -16 11 -16 30 -2 20 13 24 13 40 -2 17 -15 17
-18 2 -34 -13 -15 -20 -16 -38 -7 -11 6 -22 12 -23 12 -1 1 -20 -17 -43 -39
-22 -21 -40 -35 -40 -31 0 4 -14 -4 -31 -19 l-32 -26 -23 22 c-18 17 -21 25
-13 36 9 9 8 17 -1 28 -7 8 -9 15 -4 15 4 0 3 5 -4 12 -8 8 -9 15 -1 25 8 9 8
17 0 27 -9 10 -8 16 4 26 8 7 13 16 10 20 -2 4 7 17 20 30 13 13 22 26 20 30
-4 6 46 6 53 0z"/>
<path d="M1904 5089 c-15 -16 -24 -29 -19 -29 4 0 1 -8 -8 -18 -13 -14 -14
-21 -5 -30 9 -9 9 -15 0 -24 -8 -8 -9 -15 -1 -25 7 -7 8 -13 4 -13 -4 0 -2 -7
5 -15 9 -11 10 -18 1 -28 -8 -11 -6 -18 8 -31 17 -16 20 -15 50 9 17 15 31 23
31 19 0 -4 18 10 40 31 23 22 44 38 48 37 4 -2 14 -8 23 -13 23 -12 45 13 26
29 -10 9 -19 8 -34 -3 -18 -13 -22 -13 -33 1 -7 8 -14 26 -14 39 -1 13 -12 35
-24 48 -12 13 -19 27 -15 31 5 4 4 7 -2 6 -5 -1 -12 -1 -15 0 -25 9 -42 4 -66
-21z m85 -13 c16 -15 28 -35 26 -44 -1 -10 3 -27 10 -38 12 -19 10 -25 -21
-55 -19 -18 -34 -29 -34 -25 0 4 -14 -4 -31 -18 -25 -21 -34 -24 -45 -15 -11
9 -11 15 -3 25 9 11 8 18 -1 29 -7 8 -9 15 -5 15 4 0 3 6 -4 13 -8 10 -7 17 1
25 9 9 9 15 0 24 -9 9 -8 16 5 30 9 10 12 18 8 18 -5 0 2 11 14 24 28 29 42
28 80 -8z m116 -106 c-3 -5 -13 -6 -21 -3 -12 4 -13 8 -3 14 15 9 32 2 24 -11z"/>
<path d="M1914 5079 c-9 -10 -13 -19 -9 -19 4 0 0 -9 -10 -20 -16 -18 -14 -25
8 -21 12 2 8 -16 -8 -29 -12 -10 -13 -16 -4 -26 6 -8 8 -14 4 -14 -4 0 -2 -7
5 -15 10 -12 10 -18 1 -29 -22 -27 7 -27 38 0 17 14 31 22 31 18 0 -4 13 5 29
20 27 26 28 31 16 50 -7 11 -11 29 -10 38 3 18 -37 61 -60 64 -7 1 -21 -7 -31
-17z m65 -13 c10 -9 18 -25 16 -34 -1 -9 3 -27 11 -38 11 -19 10 -24 -12 -45
-13 -12 -24 -19 -24 -14 0 5 -10 -1 -22 -12 -13 -11 -30 -23 -38 -27 -9 -5 -8
-2 3 7 15 13 16 16 2 27 -9 7 -13 15 -10 18 3 3 0 11 -6 18 -7 9 -4 16 11 27
17 12 18 16 7 26 -8 6 -18 7 -23 3 -5 -4 0 3 10 16 11 12 16 22 11 22 -4 0 -2
6 4 14 15 18 34 15 60 -8z"/>
<path d="M1929 5074 c-1 -2 -2 -8 -3 -13 0 -5 -4 -13 -9 -17 -4 -4 0 -15 9
-25 14 -16 14 -18 -6 -29 -17 -9 -19 -14 -9 -26 6 -8 8 -14 4 -14 -4 0 -2 -7
5 -15 12 -14 15 -14 31 1 11 10 19 13 19 9 0 -4 9 0 20 10 17 15 17 20 6 39
-8 11 -12 29 -11 38 2 9 -4 23 -12 30 -15 12 -42 20 -44 12z m38 -17 c6 -4 10
-15 8 -25 -1 -9 3 -27 11 -39 11 -18 11 -23 -1 -33 -8 -7 -15 -9 -15 -5 0 5
-9 0 -20 -10 -11 -10 -21 -15 -21 -12 -1 4 -2 10 -3 15 -1 4 -5 14 -10 22 -5
8 -6 12 -1 8 4 -4 14 0 21 10 10 14 10 20 -2 34 -11 11 -12 18 -4 23 5 3 8 10
5 15 -6 10 15 8 32 -3z"/>
<path d="M1942 5048 c-9 -9 -8 -16 5 -30 13 -15 14 -20 2 -34 -7 -9 -14 -23
-15 -31 -2 -11 2 -11 18 4 11 10 22 17 24 16 13 -8 13 0 0 20 -7 12 -12 30
-11 39 4 23 -8 31 -23 16z m15 -13 c0 -8 -4 -12 -9 -9 -5 3 -6 10 -3 15 9 13
12 11 12 -6z m19 -57 c4 -7 4 -10 -1 -6 -4 4 -15 2 -24 -5 -14 -11 -14 -10 -2
6 16 20 18 21 27 5z"/>
<path d="M2102 4691 c7 -9 13 -18 15 -20 1 -2 1 5 0 16 0 11 -7 20 -14 20 -10
0 -10 -4 -1 -16z"/>
<path d="M3290 5396 c0 -8 4 -18 10 -21 6 -4 7 1 3 11 -5 13 -3 15 7 9 9 -5
11 -4 6 3 -10 17 -26 15 -26 -2z"/>
<path d="M3646 5395 c4 -8 8 -15 10 -15 2 0 4 7 4 15 0 8 -4 15 -10 15 -5 0
-7 -7 -4 -15z"/>
<path d="M3699 5403 c-1 -5 -1 -12 0 -17 1 -5 -5 -6 -14 -3 -8 4 -15 2 -15 -4
0 -6 8 -9 18 -7 9 2 16 10 14 17 -2 9 5 10 20 6 18 -5 20 -4 8 4 -18 13 -30
14 -31 4z"/>
<path d="M3500 5391 c0 -7 -5 -9 -12 -5 -7 5 -8 3 -3 -5 5 -9 10 -10 18 -2 6
6 8 14 4 18 -4 3 -7 1 -7 -6z"/>
<path d="M5016 5378 c3 -5 10 -6 15 -3 13 9 11 12 -6 12 -8 0 -12 -4 -9 -9z"/>
<path d="M3230 5360 c0 -6 7 -10 15 -10 8 0 15 2 15 4 0 2 -7 6 -15 10 -8 3
-15 1 -15 -4z"/>
<path d="M3310 5360 c-13 -8 -12 -10 3 -10 9 0 17 5 17 10 0 12 -1 12 -20 0z"/>
<path d="M3393 5355 c0 -8 4 -15 9 -15 4 0 8 7 8 15 0 8 -4 15 -8 15 -5 0 -9
-7 -9 -15z"/>
<path d="M3470 5360 c0 -6 7 -10 15 -10 8 0 15 2 15 4 0 2 -7 6 -15 10 -8 3
-15 1 -15 -4z"/>
<path d="M3580 5358 c-12 -8 -11 -9 3 -4 15 5 17 2 12 -13 -7 -24 6 -33 25
-19 12 8 11 9 -3 4 -15 -5 -17 -2 -12 13 7 24 -6 33 -25 19z"/>
<path d="M3631 5354 c0 -11 3 -14 6 -6 3 7 2 16 -1 19 -3 4 -6 -2 -5 -13z"/>
<path d="M3655 5353 c1 -11 10 -17 22 -16 12 1 19 -5 20 -18 2 -18 0 -19 -15
-7 -15 12 -16 11 -3 -4 17 -22 32 -14 27 15 -2 16 -10 21 -25 20 -12 -2 -20 1
-16 6 3 5 1 12 -4 15 -5 4 -8 -2 -6 -11z"/>
<path d="M3710 5360 c0 -5 7 -7 15 -4 8 4 15 8 15 10 0 2 -7 4 -15 4 -8 0 -15
-4 -15 -10z"/>
<path d="M3773 5355 c2 -11 9 -19 16 -17 9 2 11 -3 8 -13 -9 -21 0 -19 13 4 8
16 7 19 -8 17 -9 -2 -20 4 -24 13 -6 12 -7 12 -5 -4z"/>
<path d="M3830 5359 c0 -5 5 -7 10 -4 6 3 10 8 10 11 0 2 -4 4 -10 4 -5 0 -10
-5 -10 -11z"/>
<path d="M4977 5355 c-4 -8 -3 -16 1 -19 4 -3 9 4 9 15 2 23 -3 25 -10 4z"/>
<path d="M3345 5347 c-14 -11 -15 -16 -5 -22 9 -5 11 -4 6 3 -4 7 -1 12 8 12
9 0 16 5 16 10 0 13 -3 13 -25 -3z"/>
<path d="M3430 5352 c0 -6 9 -12 20 -15 11 -3 20 -3 20 -1 0 2 -9 8 -20 14
-11 6 -20 7 -20 2z"/>
<path d="M3175 5340 c-4 -7 3 -8 21 -4 21 5 25 4 19 -6 -5 -9 -4 -11 4 -6 6 4
9 12 6 17 -8 12 -42 12 -50 -1z"/>
<path d="M3270 5340 c0 -5 5 -10 10 -10 6 0 10 5 10 10 0 6 -4 10 -10 10 -5 0
-10 -4 -10 -10z"/>
<path d="M3510 5340 c0 -5 5 -10 10 -10 6 0 10 5 10 10 0 6 -4 10 -10 10 -5 0
-10 -4 -10 -10z"/>
<path d="M4816 5342 c-2 -4 -1 -14 4 -22 7 -11 9 -9 7 8 -1 24 -3 26 -11 14z"/>
<path d="M3560 5334 c0 -6 6 -16 13 -23 10 -11 9 -13 -5 -8 -10 4 -18 2 -18
-3 0 -12 27 -13 34 -2 2 4 -2 16 -10 27 -8 10 -14 14 -14 9z"/>
<path d="M3755 5330 c5 -9 1 -10 -16 -6 -21 6 -22 6 -6 -5 13 -7 22 -8 29 -1
6 6 6 12 -3 17 -8 6 -10 4 -4 -5z"/>
<path d="M3235 5320 c-3 -5 -2 -10 4 -10 5 0 13 5 16 10 3 6 2 10 -4 10 -5 0
-13 -4 -16 -10z"/>
<path d="M3290 5319 c-12 -8 -10 -9 7 -4 19 5 22 3 17 -12 -5 -14 -4 -15 4 -3
19 25 0 38 -28 19z"/>
<path d="M3360 5315 c-19 -22 -8 -25 13 -3 9 10 13 18 8 18 -5 0 -14 -7 -21
-15z"/>
<path d="M3390 5310 c-14 -11 -20 -20 -15 -20 6 0 3 -5 -5 -11 -10 -7 -11 -9
-2 -7 8 2 13 7 12 12 -1 5 11 17 27 27 15 10 24 19 18 19 -5 0 -21 -9 -35 -20z"/>
<path d="M3490 5323 c17 -8 11 -19 -10 -20 -13 -1 -18 2 -14 9 4 7 2 8 -5 4
-17 -11 -3 -26 22 -22 24 3 31 28 9 32 -7 1 -8 0 -2 -3z"/>
<path d="M5175 5311 c-3 -5 -2 -12 3 -15 5 -3 9 1 9 9 0 17 -3 19 -12 6z"/>
<path d="M3216 5297 c3 -10 9 -15 12 -12 3 3 0 11 -7 18 -10 9 -11 8 -5 -6z"/>
<path d="M3257 5303 c-10 -10 -8 -33 3 -33 5 0 6 7 3 17 -5 12 -3 14 7 8 9 -5
11 -4 6 3 -8 14 -10 14 -19 5z"/>
<path d="M3417 5303 c-7 -16 -2 -48 9 -46 5 1 16 -7 22 -18 11 -17 10 -20 -5
-17 -10 2 -26 14 -35 28 -16 23 -17 23 -15 3 0 -12 4 -20 8 -17 4 2 9 -2 12
-10 4 -10 38 -15 55 -7 1 0 -5 12 -14 26 -9 14 -20 22 -26 19 -12 -8 -6 29 7
38 6 5 6 8 -2 8 -6 0 -14 -3 -16 -7z"/>
<path d="M3619 5308 c-5 -21 -3 -55 4 -51 5 3 7 14 4 24 -4 14 0 19 15 19 10
0 17 -4 13 -9 -3 -6 4 -15 15 -21 13 -7 20 -7 20 0 0 5 -7 10 -15 10 -8 0 -14
6 -12 12 2 10 -41 26 -44 16z"/>
<path d="M3717 5297 c-3 -8 -2 -20 3 -26 5 -9 8 -4 8 13 0 29 -3 32 -11 13z"/>
<path d="M5075 5300 c-3 -5 -1 -10 4 -10 6 0 11 5 11 10 0 6 -2 10 -4 10 -3 0
-8 -4 -11 -10z"/>
<path d="M3334 5282 c2 -23 21 -42 41 -41 6 0 0 5 -12 12 -12 7 -22 15 -22 20
0 4 -2 13 -5 20 -2 6 -4 2 -2 -11z"/>
<path d="M3280 5270 c-6 -11 -8 -20 -6 -20 3 0 10 9 16 20 6 11 8 20 6 20 -3
0 -10 -9 -16 -20z"/>
<path d="M3447 5279 c7 -7 15 -10 18 -7 3 3 -2 9 -12 12 -14 6 -15 5 -6 -5z"/>
<path d="M3527 5271 c9 -11 20 -18 25 -15 4 3 8 1 8 -5 0 -5 -5 -12 -10 -14
-6 -3 -5 -4 2 -3 15 3 18 26 4 25 -5 0 -13 6 -18 15 -5 9 -13 16 -18 16 -6 0
-2 -9 7 -19z"/>
<path d="M3580 5280 c-12 -7 -10 -9 7 -7 12 0 19 5 17 9 -6 10 -6 10 -24 -2z"/>
<path d="M3748 5283 c6 -2 18 -2 25 0 6 3 1 5 -13 5 -14 0 -19 -2 -12 -5z"/>
<path d="M5005 5280 c-3 -6 1 -7 9 -4 18 7 21 14 7 14 -6 0 -13 -4 -16 -10z"/>
<path d="M5246 5278 c3 -5 10 -6 15 -3 13 9 11 12 -6 12 -8 0 -12 -4 -9 -9z"/>
<path d="M3510 5261 c0 -6 4 -13 10 -16 6 -3 7 1 4 9 -7 18 -14 21 -14 7z"/>
<path d="M3632 5250 c-18 -29 -15 -38 4 -12 9 13 14 25 12 27 -2 2 -9 -5 -16
-15z"/>
<path d="M4966 5258 c3 -5 10 -6 15 -3 13 9 11 12 -6 12 -8 0 -12 -4 -9 -9z"/>
<path d="M3583 5241 c-7 -11 -9 -22 -6 -25 10 -10 33 -7 33 4 0 5 -8 6 -17 3
-16 -6 -16 -5 -4 10 8 10 12 19 10 22 -3 2 -10 -4 -16 -14z"/>
<path d="M3291 5245 c4 -3 19 -8 35 -11 16 -3 26 -2 23 1 -4 3 -19 8 -35 11
-16 3 -26 2 -23 -1z"/>
<path d="M3496 5236 c6 -15 4 -17 -6 -11 -9 6 -11 4 -5 -4 5 -9 10 -10 18 -2
8 8 7 14 -2 24 -10 10 -11 8 -5 -7z"/>
<path d="M3660 5238 c0 -4 6 -8 14 -8 8 0 17 4 20 8 2 4 -4 8 -15 8 -10 0 -19
-4 -19 -8z"/>
<path d="M3360 5218 c-12 -8 -12 -9 2 -5 9 3 19 1 22 -6 3 -9 5 -9 5 0 1 18
-13 23 -29 11z"/>
<path d="M3516 5213 c-6 -14 -5 -15 5 -6 7 7 10 15 7 18 -3 3 -9 -2 -12 -12z"/>
<path d="M5270 5220 c0 -5 5 -10 11 -10 5 0 7 5 4 10 -3 6 -8 10 -11 10 -2 0
-4 -4 -4 -10z"/>
<path d="M3461 5200 c-9 -5 -4 -7 13 -7 29 0 32 2 13 10 -8 3 -20 2 -26 -3z"/>
<path d="M3540 5202 c0 -4 9 -8 19 -8 11 0 17 4 15 8 -3 4 -12 8 -20 8 -8 0
-14 -4 -14 -8z"/>
<path d="M5215 5200 c-3 -5 -1 -10 4 -10 6 0 11 5 11 10 0 6 -2 10 -4 10 -3 0
-8 -4 -11 -10z"/>
<path d="M4973 5185 c0 -8 4 -12 9 -9 5 3 6 10 3 15 -9 13 -12 11 -12 -6z"/>
<path d="M4693 5175 c0 -8 4 -12 9 -9 5 3 6 10 3 15 -9 13 -12 11 -12 -6z"/>
<path d="M5150 5179 c0 -5 5 -7 10 -4 6 3 10 8 10 11 0 2 -4 4 -10 4 -5 0 -10
-5 -10 -11z"/>
<path d="M4860 5166 c0 -2 8 -10 18 -17 15 -13 16 -12 3 4 -13 16 -21 21 -21
13z"/>
<path d="M4656 5138 c3 -5 10 -6 15 -3 13 9 11 12 -6 12 -8 0 -12 -4 -9 -9z"/>
<path d="M5136 5098 c3 -4 11 -5 19 -1 21 7 19 12 -4 10 -11 0 -18 -5 -15 -9z"/>
<path d="M5206 5102 c-3 -5 1 -9 9 -9 8 0 12 4 9 9 -3 4 -7 8 -9 8 -2 0 -6 -4
-9 -8z"/>
<path d="M4636 5087 c3 -10 9 -15 12 -12 3 3 0 11 -7 18 -10 9 -11 8 -5 -6z"/>
<path d="M5110 5081 c0 -6 4 -13 10 -16 6 -3 7 1 4 9 -7 18 -14 21 -14 7z"/>
<path d="M5086 5022 c-3 -5 1 -9 9 -9 8 0 12 4 9 9 -3 4 -7 8 -9 8 -2 0 -6 -4
-9 -8z"/>
<path d="M5326 5022 c-3 -5 1 -9 9 -9 8 0 12 4 9 9 -3 4 -7 8 -9 8 -2 0 -6 -4
-9 -8z"/>
<path d="M4637 5013 c-10 -9 -9 -23 1 -23 5 0 9 7 9 15 0 17 -1 18 -10 8z"/>
<path d="M5115 5001 c-3 -5 -2 -12 3 -15 5 -3 9 1 9 9 0 17 -3 19 -12 6z"/>
<path d="M5055 4991 c-3 -5 -2 -12 3 -15 5 -3 9 1 9 9 0 17 -3 19 -12 6z"/>
<path d="M5286 4982 c-3 -5 1 -9 9 -9 8 0 12 4 9 9 -3 4 -7 8 -9 8 -2 0 -6 -4
-9 -8z"/>
<path d="M4975 4960 c3 -5 8 -10 11 -10 2 0 4 5 4 10 0 6 -5 10 -11 10 -5 0
-7 -4 -4 -10z"/>
<path d="M5076 4947 c3 -10 9 -15 12 -12 3 3 0 11 -7 18 -10 9 -11 8 -5 -6z"/>
<path d="M5335 4951 c-3 -5 -2 -12 3 -15 5 -3 9 1 9 9 0 17 -3 19 -12 6z"/>
<path d="M5030 4939 c0 -5 5 -7 10 -4 6 3 10 8 10 11 0 2 -4 4 -10 4 -5 0 -10
-5 -10 -11z"/>
<path d="M4607 4919 c7 -7 15 -10 18 -7 3 3 -2 9 -12 12 -14 6 -15 5 -6 -5z"/>
<path d="M4773 4911 c0 -11 5 -18 9 -15 4 3 5 11 1 19 -7 21 -12 19 -10 -4z"/>
<path d="M4675 4900 c-3 -5 -1 -10 4 -10 6 0 11 5 11 10 0 6 -2 10 -4 10 -3 0
-8 -4 -11 -10z"/>
<path d="M4955 4900 c-3 -5 -1 -10 4 -10 6 0 11 5 11 10 0 6 -2 10 -4 10 -3 0
-8 -4 -11 -10z"/>
<path d="M5010 4880 c0 -5 5 -10 11 -10 5 0 7 5 4 10 -3 6 -8 10 -11 10 -2 0
-4 -4 -4 -10z"/>
<path d="M4736 4862 c-3 -5 1 -9 9 -9 8 0 12 4 9 9 -3 4 -7 8 -9 8 -2 0 -6 -4
-9 -8z"/>
<path d="M5075 4860 c3 -5 8 -10 11 -10 2 0 4 5 4 10 0 6 -5 10 -11 10 -5 0
-7 -4 -4 -10z"/>
<path d="M4610 4839 c0 -5 5 -7 10 -4 6 3 10 8 10 11 0 2 -4 4 -10 4 -5 0 -10
-5 -10 -11z"/>
<path d="M4655 4840 c3 -5 8 -10 11 -10 2 0 4 5 4 10 0 6 -5 10 -11 10 -5 0
-7 -4 -4 -10z"/>
<path d="M4795 4829 c-4 -6 -5 -12 -2 -15 2 -3 7 2 10 11 7 17 1 20 -8 4z"/>
<path d="M5053 4825 c0 -8 4 -12 9 -9 5 3 6 10 3 15 -9 13 -12 11 -12 -6z"/>
<path d="M4655 4800 c-3 -5 -1 -10 4 -10 6 0 11 5 11 10 0 6 -2 10 -4 10 -3 0
-8 -4 -11 -10z"/>
<path d="M4735 4800 c-3 -5 -1 -10 4 -10 6 0 11 5 11 10 0 6 -2 10 -4 10 -3 0
-8 -4 -11 -10z"/>
<path d="M5070 4785 c0 -7 30 -13 34 -7 3 4 -4 9 -15 9 -10 1 -19 0 -19 -2z"/>
<path d="M5213 4655 c0 -8 4 -12 9 -9 5 3 6 10 3 15 -9 13 -12 11 -12 -6z"/>
<path d="M4954 4622 c4 -3 14 -7 22 -8 9 -1 13 0 10 4 -4 3 -14 7 -22 8 -9 1
-13 0 -10 -4z"/>
<path d="M5136 4622 c-3 -5 1 -9 9 -9 8 0 12 4 9 9 -3 4 -7 8 -9 8 -2 0 -6 -4
-9 -8z"/>
<path d="M1340 3910 c0 -5 7 -7 15 -4 8 4 15 8 15 10 0 2 -7 4 -15 4 -8 0 -15
-4 -15 -10z"/>
<path d="M1366 3905 c-13 -10 -23 -11 -31 -5 -17 14 -60 3 -124 -31 -31 -17
-48 -28 -38 -25 10 3 15 2 12 -4 -3 -6 -17 -10 -31 -10 -22 0 -29 -10 -25 -33
1 -5 -3 -6 -8 -3 -11 7 -45 -24 -36 -32 3 -4 11 0 16 8 9 13 10 13 6 0 -2 -8
-12 -17 -23 -18 -10 -2 -23 -9 -29 -14 -7 -8 -5 -9 5 -4 9 5 9 2 -2 -7 -10 -8
-15 -17 -11 -20 3 -4 2 -7 -4 -7 -5 0 -18 -18 -28 -41 -16 -35 -17 -42 -4 -50
11 -7 10 -9 -5 -9 -11 0 -16 -3 -12 -7 4 -5 13 -8 19 -8 5 0 12 -7 14 -15 3
-9 1 -11 -4 -5 -17 20 -31 13 -37 -18 -9 -52 6 -169 23 -175 6 -2 7 -10 4 -18
-3 -8 0 -14 6 -14 7 0 11 -6 9 -12 -1 -7 13 -37 31 -66 24 -38 37 -50 44 -43
14 14 27 14 27 0 0 -5 -4 -7 -10 -4 -21 13 -9 -13 18 -36 24 -21 106 -69 118
-69 2 0 4 7 4 16 0 8 -4 12 -10 9 -5 -3 -15 4 -21 17 -6 13 -19 25 -30 25 -12
1 -17 -3 -13 -9 4 -7 2 -8 -5 -4 -6 4 -9 12 -6 17 8 12 48 5 53 -9 2 -7 8 -10
13 -7 5 4 6 -1 3 -10 -4 -10 -2 -15 7 -13 7 2 15 -6 17 -17 5 -22 19 -35 40
-35 8 0 10 5 6 13 -4 6 2 3 14 -7 12 -11 22 -14 22 -8 0 7 5 12 11 12 5 0 8
-4 5 -8 -8 -13 125 -3 141 9 7 6 11 14 9 18 -3 4 0 13 5 21 7 11 8 7 5 -13 -4
-23 -2 -28 10 -23 9 3 19 6 22 6 4 0 0 5 -8 11 -12 9 -10 10 8 6 17 -4 22 -2
18 8 -3 8 0 17 6 21 6 4 8 3 4 -4 -3 -6 -2 -13 4 -17 5 -3 10 -1 10 6 0 7 3 9
7 5 4 -3 13 4 21 16 11 19 12 20 8 3 -5 -16 -1 -15 19 8 15 17 22 34 18 45 -5
16 -5 16 8 -1 13 -16 17 -13 50 32 27 36 34 52 26 60 -8 8 -6 16 8 29 18 16
18 16 6 -1 -8 -9 -11 -20 -8 -23 5 -6 38 50 37 61 -1 3 3 29 9 58 13 68 9 99
-15 108 -17 6 -16 7 6 11 l25 4 -28 12 c-16 7 -25 16 -22 22 4 6 -4 9 -17 7
-14 -1 -22 3 -20 11 1 6 -7 12 -19 12 -11 0 -18 -4 -15 -9 3 -5 -5 -16 -19
-25 -13 -9 -26 -12 -29 -8 -8 14 0 43 15 53 8 5 10 9 4 9 -5 0 -3 6 5 13 8 7
16 20 18 30 3 15 0 16 -17 5 -11 -6 -19 -17 -18 -22 1 -6 -9 -11 -23 -11 -15
0 -24 5 -23 12 2 8 -6 12 -20 10 -13 -1 -21 3 -20 11 2 6 -6 12 -17 12 -11 0
-19 -5 -17 -12 1 -6 -7 -13 -18 -15 -18 -3 -18 -2 -2 5 10 4 18 12 18 17 -1 6
9 10 22 10 12 0 21 -5 20 -12 -2 -8 6 -12 20 -10 13 1 21 -3 20 -10 -2 -7 6
-13 18 -13 11 0 18 4 15 9 -3 5 5 16 19 25 13 9 26 12 29 8 8 -14 0 -43 -15
-53 -8 -5 -9 -9 -4 -9 6 0 3 -6 -5 -13 -8 -7 -16 -20 -18 -30 -3 -15 0 -16 17
-5 11 6 19 17 18 22 -1 6 9 11 23 11 15 0 24 -5 23 -12 -2 -8 6 -12 20 -10 13
1 21 -3 19 -10 -1 -7 5 -13 13 -13 8 0 15 7 15 15 0 8 -5 15 -11 15 -6 0 -9 6
-6 13 5 15 -10 47 -24 47 -6 0 -7 -5 -3 -12 4 -7 3 -8 -4 -4 -17 10 -15 26 4
26 8 0 12 5 9 11 -4 6 -13 8 -21 5 -8 -3 -17 1 -20 9 -4 8 -10 12 -15 9 -5 -3
-6 3 -2 12 4 12 3 15 -6 10 -8 -5 -14 -1 -18 12 -3 11 -12 23 -20 26 -9 4 -12
13 -9 24 4 12 -3 26 -19 40 -24 21 -25 21 -25 2 0 -11 5 -19 11 -17 6 1 14 -5
16 -13 4 -12 3 -12 -5 -2 -5 8 -13 13 -18 13 -5 -1 -10 9 -12 21 -2 18 -16 29
-60 46 -61 23 -87 28 -62 12 8 -5 10 -10 4 -10 -6 0 -17 7 -24 15 -11 13 -14
13 -27 -2 -8 -10 -12 -12 -8 -5 3 6 3 12 -2 13 -4 0 -17 2 -28 4 -11 2 -29 -3
-39 -10z m54 -31 c-1 -4 4 -11 12 -16 11 -8 10 -9 -1 -6 -8 2 -15 15 -17 29
-1 13 0 18 2 12 3 -7 5 -15 4 -19z m-134 -2 c1 -7 0 -8 -3 -2 -7 14 -24 13
-20 -2 1 -6 -6 -14 -15 -16 -10 -2 -18 1 -18 7 0 6 7 8 15 4 9 -3 15 -2 14 3
-3 18 1 26 13 22 6 -2 13 -10 14 -16z m37 3 c-3 -10 0 -15 8 -13 9 2 14 -6 14
-19 0 -13 -4 -23 -10 -22 -5 0 -13 -8 -17 -18 -7 -16 -8 -16 -5 2 2 11 9 19
15 18 7 -2 12 6 12 17 0 11 -5 19 -12 18 -6 -2 -14 5 -16 15 -2 9 1 17 7 17 6
0 8 -7 4 -15z m67 4 c12 -8 10 -9 -7 -4 -19 5 -22 3 -17 -12 5 -14 4 -15 -4
-3 -19 25 0 38 28 19z m80 7 c0 -2 -7 -7 -16 -10 -8 -3 -12 -2 -9 4 6 10 25
14 25 6z m60 -17 c0 -6 -4 -7 -10 -4 -5 3 -10 11 -10 16 0 6 5 7 10 4 6 -3 10
-11 10 -16z m-28 -18 c-2 -10 5 -12 25 -7 23 5 25 4 10 -5 -21 -12 -51 -4 -42
11 3 5 -3 10 -14 10 -12 0 -20 -5 -18 -12 1 -6 -7 -13 -18 -15 l-20 -3 20 9
c11 5 16 10 12 10 -5 1 -5 6 -2 12 10 15 51 6 47 -10z m-267 -31 c6 1 11 -6
13 -14 2 -9 -1 -16 -7 -16 -6 0 -8 7 -4 15 3 10 0 15 -8 13 -8 -2 -14 7 -16
22 -2 24 -2 24 5 2 4 -13 12 -23 17 -22z m40 20 c-3 -5 -12 -10 -18 -10 -7 0
-6 4 3 10 19 12 23 12 15 0z m35 0 c0 -5 -4 -10 -10 -10 -5 0 -10 5 -10 10 0
6 5 10 10 10 6 0 10 -4 10 -10z m97 4 c-3 -3 -12 -4 -19 -1 -8 3 -5 6 6 6 11
1 17 -2 13 -5z m-205 -52 c-3 -10 -1 -13 6 -8 12 7 38 -32 28 -42 -3 -3 -6 1
-6 9 -1 9 -8 6 -20 -10 -11 -13 -20 -19 -20 -13 0 5 7 15 15 22 18 15 20 31 3
28 -6 -2 -13 10 -14 27 -2 20 0 25 5 16 5 -8 7 -21 3 -29z m218 26 c0 -5 0
-12 0 -18 0 -5 -5 -10 -11 -10 -8 0 -8 4 1 14 9 12 8 15 -10 13 -15 -1 -20 -7
-18 -22 2 -15 -3 -20 -21 -20 -14 0 -26 7 -28 15 -3 9 -1 11 4 5 12 -14 47
-19 38 -5 -11 18 2 37 24 36 12 0 21 -4 21 -8z m70 2 c0 -5 -4 -10 -10 -10 -5
0 -10 5 -10 10 0 6 5 10 10 10 6 0 10 -4 10 -10z m98 -8 c2 -7 9 -9 14 -6 7 4
8 2 4 -4 -10 -16 -26 -15 -26 1 0 7 -9 13 -20 14 -11 1 -19 -4 -17 -10 1 -7
-8 -11 -20 -10 -14 2 -22 -2 -20 -9 4 -20 -43 -17 -54 3 -6 13 -6 19 1 19 5 0
10 -6 10 -13 0 -7 9 -13 20 -14 11 -1 19 4 17 10 -1 7 8 11 20 10 13 -2 22 1
22 5 -3 17 2 22 23 19 12 -2 24 -9 26 -15z m-298 -2 c0 -5 -4 -10 -10 -10 -5
0 -10 5 -10 10 0 6 5 10 10 10 6 0 10 -4 10 -10z m-120 -20 c-6 -11 -15 -18
-21 -15 -5 4 -9 -3 -9 -15 0 -12 4 -19 9 -16 5 3 16 -5 25 -19 9 -14 15 -26
14 -26 -17 -8 -51 -3 -55 7 -3 8 -8 12 -12 10 -4 -3 -8 5 -8 17 -2 20 -1 20
15 -3 9 -14 25 -26 35 -28 15 -3 16 0 5 17 -6 11 -17 19 -22 18 -6 -1 -11 9
-11 23 0 15 5 24 13 23 6 -2 12 4 12 12 0 8 5 15 10 15 7 0 7 -7 0 -20z m454
-2 c-5 -8 -2 -9 10 -5 10 4 15 3 11 -3 -3 -6 -1 -10 6 -10 7 0 10 -3 7 -6 -10
-9 -49 16 -43 27 4 5 8 9 11 9 3 0 2 -5 -2 -12z m-319 -29 c0 -19 -6 -24 -24
-24 -16 0 -25 6 -27 19 -4 27 1 33 28 31 17 -1 23 -8 23 -26z m141 -5 c3 -16
2 -26 -1 -23 -3 4 -8 19 -11 35 -3 16 -2 26 1 23 3 -4 8 -19 11 -35z m124 26
c0 -5 -4 -10 -10 -10 -5 0 -10 5 -10 10 0 6 5 10 10 10 6 0 10 -4 10 -10z
m-380 -20 c0 -5 -4 -10 -10 -10 -5 0 -10 5 -10 10 0 6 5 10 10 10 6 0 10 -4
10 -10z m137 -12 c-3 -8 -6 -5 -6 6 -1 11 2 17 5 13 3 -3 4 -12 1 -19z m90 16
c-3 -3 -12 -4 -19 -1 -8 3 -5 6 6 6 11 1 17 -2 13 -5z m126 -12 c-2 -7 6 -12
17 -12 11 0 19 5 18 12 -2 6 5 14 15 16 9 2 17 -1 17 -7 0 -6 -7 -8 -15 -4
-10 3 -15 0 -13 -8 2 -9 -6 -14 -19 -14 -13 0 -23 4 -22 10 0 5 -8 13 -18 17
-16 7 -16 8 2 5 11 -2 19 -9 18 -15z m-173 4 c0 -3 -4 -8 -10 -11 -5 -3 -10
-1 -10 4 0 6 5 11 10 11 6 0 10 -2 10 -4z m117 -2 c-3 -3 -12 -4 -19 -1 -8 3
-5 6 6 6 11 1 17 -2 13 -5z m-52 -30 c8 -10 14 -23 15 -29 0 -5 -8 1 -18 15
-9 14 -25 26 -35 28 -15 3 -16 0 -5 -17 6 -11 17 -19 22 -18 6 1 11 -9 11 -23
0 -15 -5 -24 -12 -23 -8 2 -12 -6 -10 -20 1 -13 -3 -21 -10 -19 -7 1 -13 -7
-13 -18 0 -11 5 -19 12 -17 6 1 13 -7 15 -18 3 -18 2 -18 -5 -2 -4 10 -12 18
-17 18 -6 -1 -10 9 -10 22 0 12 5 21 12 20 8 -2 12 6 10 20 -1 13 3 21 11 20
6 -2 12 6 12 18 0 11 -4 18 -9 15 -10 -7 -43 39 -34 48 11 11 43 0 58 -20z
m80 18 c-5 -4 -10 -14 -10 -22 0 -8 5 -19 10 -23 6 -5 4 -7 -5 -5 -8 3 -14 14
-13 26 1 31 2 32 16 32 7 0 8 -3 2 -8z m153 -10 c2 -7 9 -9 14 -6 7 4 8 2 4
-4 -10 -16 -26 -15 -26 1 0 7 -9 13 -20 14 -11 1 -19 -3 -17 -10 1 -6 -6 -13
-15 -15 -10 -2 -18 1 -18 7 0 6 7 8 15 4 9 -3 15 -2 14 3 -3 19 2 24 23 21 12
-2 24 -9 26 -15z m-575 -9 c-7 -2 -13 -9 -13 -14 0 -5 6 -8 13 -6 7 1 12 -8
12 -23 0 -15 -5 -24 -12 -22 -7 1 -13 -5 -13 -13 0 -8 -5 -15 -10 -15 -7 0 -7
7 0 20 6 11 15 18 21 15 5 -4 9 3 9 15 0 12 -4 19 -9 15 -12 -7 -24 12 -16 25
3 6 12 10 18 9 9 0 9 -2 0 -6z m137 -3 c0 -5 -4 -10 -10 -10 -5 0 -10 5 -10
10 0 6 5 10 10 10 6 0 10 -4 10 -10z m110 0 c-18 -12 -30 -13 -30 -2 0 4 10 9
22 9 18 2 20 0 8 -7z m140 0 c0 -5 -4 -10 -10 -10 -5 0 -10 5 -10 10 0 6 5 10
10 10 6 0 10 -4 10 -10z m-110 -10 c0 -5 -6 -10 -13 -10 -7 0 -13 -9 -14 -20
-1 -11 3 -19 10 -17 6 1 13 -6 15 -15 2 -10 -1 -18 -7 -18 -6 0 -7 7 -4 17 4
10 2 14 -5 9 -6 -3 -16 2 -22 13 -8 16 -6 23 12 35 26 19 28 19 28 6z m-65
-30 c0 -19 -5 -24 -25 -24 -18 0 -25 5 -26 19 -1 30 6 36 29 33 16 -2 22 -10
22 -28z m345 20 c0 -5 -4 -10 -10 -10 -5 0 -10 5 -10 10 0 6 5 10 10 10 6 0
10 -4 10 -10z m-440 -10 c0 -5 -5 -10 -11 -10 -5 0 -7 5 -4 10 3 6 8 10 11 10
2 0 4 -4 4 -10z m27 -12 c-3 -8 -6 -5 -6 6 -1 11 2 17 5 13 3 -3 4 -12 1 -19z
m-167 2 c0 -5 -4 -10 -10 -10 -5 0 -10 5 -10 10 0 6 5 10 10 10 6 0 10 -4 10
-10z m320 0 c0 -5 -4 -10 -10 -10 -5 0 -10 5 -10 10 0 6 5 10 10 10 6 0 10 -4
10 -10z m97 4 c-3 -3 -12 -4 -19 -1 -8 3 -5 6 6 6 11 1 17 -2 13 -5z m240 -16
c-3 -8 -6 -5 -6 6 -1 11 2 17 5 13 3 -3 4 -12 1 -19z m-560 6 c-3 -3 -12 -4
-19 -1 -8 3 -5 6 6 6 11 1 17 -2 13 -5z m-118 -27 c0 -9 -2 -8 -6 1 -2 6 -10
9 -15 6 -7 -4 -8 -2 -4 5 9 13 26 5 25 -12z m66 -7 c-18 -19 -17 -20 3 -20 12
0 21 6 20 13 -2 7 6 11 19 10 14 -2 22 2 20 10 -3 18 46 15 50 -3 3 -9 1 -11
-4 -5 -13 15 -44 18 -41 3 2 -8 -6 -12 -20 -11 -13 2 -21 -1 -17 -7 8 -13 -20
-24 -41 -16 -13 5 -13 9 3 30 10 13 20 22 22 20 2 -2 -4 -13 -14 -24z m390 0
c0 -19 -5 -25 -24 -25 -16 0 -25 6 -27 19 -4 27 2 33 28 32 17 -1 23 -7 23
-26z m65 20 c0 -5 -4 -10 -10 -10 -5 0 -10 5 -10 10 0 6 5 10 10 10 6 0 10 -4
10 -10z m-324 -35 c-3 -9 -10 -13 -16 -10 -5 3 -10 -3 -10 -14 0 -12 5 -20 12
-18 6 1 13 -7 15 -18 3 -18 2 -18 -5 -2 -4 10 -12 18 -17 18 -6 -1 -10 9 -10
22 0 12 5 21 13 20 6 -2 12 5 12 14 0 9 3 14 6 10 4 -3 4 -13 0 -22z m77 10
c-3 -10 0 -15 8 -13 9 2 14 -6 14 -19 0 -13 -4 -23 -10 -22 -5 0 -13 -8 -17
-18 -7 -16 -8 -16 -5 2 2 11 9 19 15 18 7 -2 12 6 12 17 0 11 -5 19 -12 18 -6
-2 -14 5 -16 15 -2 9 1 17 7 17 6 0 8 -7 4 -15z m114 -7 c-3 -8 -6 -5 -6 6 -1
11 2 17 5 13 3 -3 4 -12 1 -19z m103 9 c0 -7 9 -13 20 -14 11 -1 18 2 15 8
-10 14 22 22 42 10 15 -9 13 -10 -10 -5 -20 5 -27 3 -25 -7 5 -21 -41 -19 -53
2 -6 13 -6 19 1 19 5 0 10 -6 10 -13z m221 -4 c13 -17 13 -17 -6 -3 -11 8 -22
16 -24 17 -2 2 0 3 6 3 6 0 17 -8 24 -17z m-558 -8 c-3 -9 -8 -14 -10 -11 -3
3 -2 9 2 15 9 16 15 13 8 -4z m87 5 c0 -5 -4 -10 -10 -10 -5 0 -10 5 -10 10 0
6 5 10 10 10 6 0 10 -4 10 -10z m-240 -10 c0 -5 -4 -10 -10 -10 -5 0 -10 5
-10 10 0 6 5 10 10 10 6 0 10 -4 10 -10z m560 -10 c0 -5 -5 -10 -11 -10 -5 0
-7 5 -4 10 3 6 8 10 11 10 2 0 4 -4 4 -10z m27 -12 c-3 -8 -6 -5 -6 6 -1 11 2
17 5 13 3 -3 4 -12 1 -19z m-550 6 c-3 -3 -12 -4 -19 -1 -8 3 -5 6 6 6 11 1
17 -2 13 -5z m78 -4 c-19 -8 -18 -11 8 -14 6 -1 11 -11 10 -23 -2 -22 24 -27
40 -8 5 6 7 4 5 -5 -3 -8 -15 -14 -29 -14 -19 0 -23 5 -22 22 2 12 -1 21 -5
20 -4 0 -15 2 -25 7 -15 6 -16 10 -5 16 7 5 20 8 28 8 10 0 8 -3 -5 -9z m105
0 c0 -5 -4 -10 -10 -10 -5 0 -10 5 -10 10 0 6 5 10 10 10 6 0 10 -4 10 -10z
m40 0 c0 -5 -4 -10 -10 -10 -5 0 -10 5 -10 10 0 6 5 10 10 10 6 0 10 -4 10
-10z m120 0 c0 -5 -4 -10 -10 -10 -5 0 -10 5 -10 10 0 6 5 10 10 10 6 0 10 -4
10 -10z m67 -6 c-3 -3 -12 -4 -19 -1 -8 3 -5 6 6 6 11 1 17 -2 13 -5z m70 0
c-3 -3 -12 -4 -19 -1 -8 3 -5 6 6 6 11 1 17 -2 13 -5z m-464 -22 c-4 -15 13
-16 20 -2 3 6 4 5 3 -2 -2 -7 -9 -13 -17 -13 -8 0 -13 5 -12 12 2 6 -6 11 -17
10 -11 -1 -20 -7 -20 -14 0 -7 -5 -13 -10 -13 -7 0 -7 6 -1 19 11 20 58 23 54
3z m362 -13 c0 -18 -5 -24 -22 -23 -15 1 -21 -4 -20 -17 1 -21 12 -25 20 -9 3
6 4 5 3 -2 -5 -24 -31 -14 -31 12 0 19 5 25 22 24 15 -1 21 4 20 17 -1 20 -17
27 -17 7 0 -6 -3 -9 -6 -5 -9 9 6 29 19 24 7 -2 12 -14 12 -28z m65 21 c0 -5
-4 -10 -10 -10 -5 0 -10 5 -10 10 0 6 5 10 10 10 6 0 10 -4 10 -10z m95 -21
c0 -19 -6 -24 -25 -24 -18 0 -25 6 -26 20 -1 29 5 35 29 31 16 -2 22 -10 22
-27z m105 21 c0 -5 -4 -10 -10 -10 -5 0 -10 5 -10 10 0 6 5 10 10 10 6 0 10
-4 10 -10z m-440 -10 c0 -5 -4 -10 -10 -10 -5 0 -10 5 -10 10 0 6 5 10 10 10
6 0 10 -4 10 -10z m220 -10 c12 -7 10 -9 -8 -7 -12 0 -22 5 -22 9 0 11 12 10
30 -2z m50 0 c0 -5 -2 -10 -4 -10 -3 0 -8 5 -11 10 -3 6 -1 10 4 10 6 0 11 -4
11 -10z m95 0 c3 -5 1 -10 -4 -10 -6 0 -11 5 -11 10 0 6 2 10 4 10 3 0 8 -4
11 -10z m45 -3 c0 -7 9 -13 20 -14 11 -1 19 3 17 10 -1 6 6 13 16 15 9 2 17
-1 17 -7 0 -6 -7 -8 -15 -4 -10 3 -15 0 -13 -8 5 -21 -41 -19 -53 2 -6 13 -6
19 1 19 5 0 10 -6 10 -13z m-340 -12 c8 0 19 5 23 10 5 6 7 4 5 -5 -3 -8 -15
-14 -28 -14 -13 0 -25 6 -28 14 -2 9 0 11 5 5 4 -5 15 -10 23 -10z m-296 -36
c-3 -5 4 -9 16 -9 12 0 19 4 16 9 -3 5 5 16 19 25 14 9 26 15 26 14 10 -22 3
-50 -15 -59 -18 -9 -19 -8 -6 3 8 7 16 21 18 31 3 15 0 16 -17 5 -11 -6 -19
-17 -18 -22 1 -6 -9 -11 -23 -11 -14 0 -24 5 -23 11 1 5 -7 16 -18 22 -17 11
-20 10 -17 -5 2 -10 14 -26 28 -35 23 -16 23 -17 3 -15 -12 0 -20 4 -17 8 2 4
-2 9 -10 12 -10 4 -15 38 -7 55 0 1 12 -5 26 -14 14 -9 22 -20 19 -25z m26 31
c0 -5 -4 -10 -10 -10 -5 0 -10 5 -10 10 0 6 5 10 10 10 6 0 10 -4 10 -10z
m215 -21 c0 -19 -6 -24 -24 -24 -16 0 -25 6 -27 19 -4 27 1 33 28 31 17 -1 23
-8 23 -26z m241 -2 c-5 -33 -48 -30 -53 3 -2 18 -1 21 6 10 5 -8 7 -18 5 -22
-3 -4 3 -8 13 -8 11 0 19 8 20 19 1 14 -3 18 -15 14 -14 -4 -14 -3 -2 5 19 14
30 6 26 -21z m140 -3 c3 -16 2 -26 -1 -23 -3 4 -8 19 -11 35 -3 16 -2 26 1 23
3 -4 8 -19 11 -35z m84 16 c0 -5 -5 -10 -11 -10 -5 0 -7 5 -4 10 3 6 8 10 11
10 2 0 4 -4 4 -10z m-773 -22 c-3 -8 -6 -5 -6 6 -1 11 2 17 5 13 3 -3 4 -12 1
-19z m170 0 c-3 -8 -6 -5 -6 6 -1 11 2 17 5 13 3 -3 4 -12 1 -19z m70 0 c-3
-8 -6 -5 -6 6 -1 11 2 17 5 13 3 -3 4 -12 1 -19z m90 0 c-3 -8 -6 -5 -6 6 -1
11 2 17 5 13 3 -3 4 -12 1 -19z m70 0 c-3 -8 -6 -5 -6 6 -1 11 2 17 5 13 3 -3
4 -12 1 -19z m80 0 c-3 -8 -6 -5 -6 6 -1 11 2 17 5 13 3 -3 4 -12 1 -19z m90
0 c-3 -8 -6 -5 -6 6 -1 11 2 17 5 13 3 -3 4 -12 1 -19z m90 16 c-3 -3 -12 -4
-19 -1 -8 3 -5 6 6 6 11 1 17 -2 13 -5z m-447 -14 c0 -5 -4 -10 -10 -10 -5 0
-10 5 -10 10 0 6 5 10 10 10 6 0 10 -4 10 -10z m160 0 c0 -5 -4 -10 -10 -10
-5 0 -10 5 -10 10 0 6 5 10 10 10 6 0 10 -4 10 -10z m240 6 c0 -3 -4 -8 -10
-11 -5 -3 -10 -1 -10 4 0 6 5 11 10 11 6 0 10 -2 10 -4z m117 -2 c-3 -3 -12
-4 -19 -1 -8 3 -5 6 6 6 11 1 17 -2 13 -5z m-52 -30 c8 -10 14 -23 15 -29 0
-5 -8 1 -18 15 -9 14 -25 26 -35 28 -15 3 -16 0 -5 -17 6 -11 17 -19 22 -18 6
1 11 -8 11 -20 0 -13 -4 -23 -10 -22 -5 0 -13 -8 -17 -18 -7 -16 -8 -16 -5 2
2 11 9 19 15 18 7 -2 12 6 12 18 0 11 -4 18 -9 15 -10 -7 -43 39 -34 48 11 11
43 0 58 -20z m110 -5 c0 -19 -5 -24 -25 -24 -19 0 -24 5 -23 23 1 32 1 32 26
28 16 -2 22 -10 22 -27z m-598 5 c-2 -3 -17 -7 -33 -10 -17 -2 -24 -1 -17 4
13 8 58 14 50 6z m23 -12 c-14 -9 -26 -25 -28 -35 -3 -15 0 -16 17 -5 11 6 19
17 18 22 -1 6 9 11 23 11 15 0 24 -5 23 -12 -2 -7 6 -13 17 -13 11 0 19 6 18
13 -2 7 7 12 22 12 14 0 24 -5 23 -11 -1 -5 7 -16 18 -22 17 -11 20 -10 17 5
-2 10 -14 26 -28 35 -14 10 -20 18 -15 18 17 -1 49 -29 51 -47 4 -28 -6 -34
-31 -17 -14 9 -22 20 -19 25 3 5 -4 9 -15 9 -12 0 -20 -6 -18 -12 1 -8 -8 -13
-23 -13 -15 0 -24 5 -22 13 1 6 -7 12 -19 12 -11 0 -18 -4 -15 -9 3 -5 -5 -16
-19 -25 -25 -17 -35 -11 -31 17 2 18 34 46 51 47 6 0 -1 -8 -15 -18z m219 3
c3 -3 -7 -4 -23 -1 -16 3 -31 8 -35 11 -3 3 7 4 23 1 16 -3 31 -8 35 -11z m80
0 c3 -3 -7 -4 -23 -1 -16 3 -31 8 -35 11 -3 3 7 4 23 1 16 -3 31 -8 35 -11z
m91 5 c8 -5 12 -11 10 -14 -3 -2 -14 2 -24 10 -22 15 -10 19 14 4z m120 0 c0
-5 -4 -10 -10 -10 -5 0 -10 5 -10 10 0 6 5 10 10 10 6 0 10 -4 10 -10z m-697
-29 c-4 -14 14 -15 20 -1 3 6 4 5 3 -2 -2 -7 -9 -13 -17 -13 -8 0 -13 6 -11
14 2 9 -3 11 -13 7 -10 -3 -14 -2 -10 5 9 13 31 5 28 -10z m103 1 c1 -7 0 -8
-3 -2 -8 16 -19 12 -20 -9 -1 -13 5 -18 20 -17 17 1 22 -5 22 -24 0 -26 -26
-36 -31 -12 -1 7 0 8 3 2 8 -16 19 -12 20 9 1 13 -5 18 -20 17 -21 -1 -31 24
-19 47 5 11 25 3 28 -11z m339 -13 c0 -18 -5 -24 -22 -23 -15 1 -21 -4 -20
-17 1 -21 12 -25 20 -9 3 6 4 5 3 -2 -5 -24 -31 -14 -31 12 0 19 5 25 22 24
15 -1 21 4 20 17 -1 20 -17 27 -17 7 0 -6 -3 -9 -6 -5 -9 9 6 29 19 24 7 -2
12 -14 12 -28z m117 17 c-2 -5 2 -13 10 -18 10 -8 10 -9 -2 -5 -8 2 -14 10
-12 16 1 6 -7 11 -18 11 -11 0 -19 -6 -17 -12 1 -7 -4 -13 -12 -13 -8 0 -15 6
-17 13 -1 7 0 8 3 2 5 -12 24 -14 22 -2 -3 18 3 23 24 20 12 -2 20 -7 19 -12z
m-516 -34 c-10 -11 -16 -12 -16 -4 0 7 5 12 10 12 6 0 10 8 11 18 0 11 2 13 6
4 3 -8 -2 -21 -11 -30z m91 16 c-3 -8 -6 -5 -6 6 -1 11 2 17 5 13 3 -3 4 -12
1 -19z m250 0 c-3 -8 -6 -5 -6 6 -1 11 2 17 5 13 3 -3 4 -12 1 -19z m94 -8 c5
0 9 -5 9 -11 0 -8 -5 -8 -15 1 -8 7 -14 20 -14 29 1 13 2 13 6 -1 2 -10 9 -18
14 -18z m129 10 c0 -5 -4 -10 -10 -10 -5 0 -10 5 -10 10 0 6 5 10 10 10 6 0
10 -4 10 -10z m97 4 c-3 -3 -12 -4 -19 -1 -8 3 -5 6 6 6 11 1 17 -2 13 -5z
m70 -16 c-3 -8 -6 -5 -6 6 -1 11 2 17 5 13 3 -3 4 -12 1 -19z m-27 2 c0 -5 -2
-10 -4 -10 -3 0 -8 5 -11 10 -3 6 -1 10 4 10 6 0 11 -4 11 -10z m-520 -10 c0
-5 -4 -10 -10 -10 -5 0 -10 5 -10 10 0 6 5 10 10 10 6 0 10 -4 10 -10z m80 0
c0 -5 -4 -10 -10 -10 -5 0 -10 5 -10 10 0 6 5 10 10 10 6 0 10 -4 10 -10z
m240 0 c0 -5 -4 -10 -10 -10 -5 0 -10 5 -10 10 0 6 5 10 10 10 6 0 10 -4 10
-10z m169 -4 c0 -5 5 -13 13 -18 10 -8 10 -9 -2 -5 -8 2 -14 9 -13 15 2 6 -6
10 -17 9 -11 -1 -20 -2 -20 -3 0 -14 14 -33 21 -28 5 3 9 0 9 -5 0 -6 -4 -11
-10 -11 -12 0 -32 38 -26 49 7 11 47 9 45 -3z m-129 -6 c0 -5 -7 -10 -15 -10
-8 0 -14 -5 -12 -12 3 -17 -43 -18 -50 -2 -3 8 -10 11 -16 7 -6 -3 -7 -1 -3 5
10 16 26 15 26 -1 0 -7 9 -13 20 -14 11 -1 18 2 15 7 -3 5 3 13 12 19 23 13
23 13 23 1z m-566 -8 c2 -4 0 -14 -6 -22 -8 -12 -9 -11 -4 3 5 15 2 17 -17 12
-17 -5 -19 -4 -7 4 18 13 27 14 34 3z m44 -9 c-2 -10 -10 -17 -16 -15 -7 1
-12 -7 -12 -18 0 -11 5 -19 11 -17 6 1 14 -5 16 -13 4 -12 3 -12 -5 -2 -5 8
-13 13 -18 13 -5 -1 -9 9 -9 22 0 13 5 21 14 19 8 -2 11 3 8 13 -4 8 -2 15 4
15 6 0 9 -8 7 -17z m87 7 c3 -5 1 -10 -4 -10 -6 0 -11 5 -11 10 0 6 2 10 4 10
3 0 8 -4 11 -10z m45 -3 c0 -7 9 -13 20 -14 11 -1 19 4 17 10 -1 7 9 12 23 12
14 0 24 -5 23 -12 -2 -6 6 -11 17 -10 11 1 20 7 20 14 0 7 5 13 10 13 7 0 7
-6 1 -19 -11 -20 -58 -23 -53 -3 1 7 -7 12 -18 12 -11 0 -19 -5 -17 -12 4 -20
-43 -17 -54 3 -6 13 -6 19 1 19 5 0 10 -6 10 -13z m180 3 c0 -5 -5 -10 -11
-10 -5 0 -7 5 -4 10 3 6 8 10 11 10 2 0 4 -4 4 -10z m83 -5 c-3 -10 0 -15 8
-13 9 2 14 -6 14 -22 0 -15 -5 -24 -12 -23 -8 2 -12 -6 -10 -20 1 -13 -3 -21
-10 -19 -7 1 -13 -7 -13 -19 0 -11 4 -18 9 -15 5 3 16 -5 25 -19 17 -25 11
-35 -17 -31 -18 2 -46 34 -47 51 0 6 8 -1 18 -15 9 -14 25 -26 35 -28 15 -3
16 0 5 17 -6 11 -17 19 -22 18 -6 -1 -11 9 -11 23 0 15 5 24 12 23 8 -2 12 6
10 20 -1 13 3 21 11 20 6 -2 12 6 12 17 0 11 -5 19 -12 18 -6 -2 -14 5 -16 15
-2 9 1 17 7 17 6 0 8 -7 4 -15z m307 5 c0 -5 -4 -10 -10 -10 -5 0 -10 5 -10
10 0 6 5 10 10 10 6 0 10 -4 10 -10z m-112 -13 c14 4 14 3 2 -5 -16 -12 -30
-7 -29 11 0 9 2 9 5 0 3 -7 13 -9 22 -6z m-472 -33 c3 -16 2 -26 -1 -23 -3 4
-8 19 -11 35 -3 16 -2 26 1 23 3 -4 8 -19 11 -35z m160 10 c-3 -15 -8 -29 -11
-32 -3 -3 -3 5 -1 19 2 13 5 27 5 32 1 4 3 7 6 7 3 0 3 -12 1 -26z m260 -7
c-2 -15 -10 -21 -23 -20 -12 1 -19 -5 -20 -17 -1 -11 4 -19 10 -17 7 1 11 -8
10 -20 -2 -14 2 -22 10 -20 7 1 12 -8 12 -23 -1 -19 -6 -25 -21 -23 -13 1 -20
-4 -21 -17 -1 -11 3 -19 9 -17 6 1 13 -5 15 -13 4 -12 3 -12 -5 -2 -5 8 -13
14 -18 15 -5 1 -9 11 -9 22 1 14 7 19 21 18 13 -1 20 4 21 17 1 11 -4 19 -10
17 -7 -1 -11 8 -10 20 2 14 -2 22 -10 20 -7 -1 -12 8 -12 23 1 19 6 25 21 23
13 -1 20 4 21 18 2 18 0 19 -15 7 -15 -12 -16 -11 -3 4 17 22 32 14 27 -15z
m144 13 c0 -5 -7 -10 -15 -10 -8 0 -14 -6 -12 -12 1 -8 -8 -13 -23 -13 -15 0
-24 5 -22 13 2 14 -14 16 -21 2 -3 -6 -4 -5 -3 2 2 7 9 13 17 13 8 0 13 -6 12
-12 -2 -7 6 -13 18 -13 11 0 18 4 14 9 -3 6 3 14 12 20 23 13 23 13 23 1z
m-660 -10 c0 -5 -4 -10 -10 -10 -5 0 -10 5 -10 10 0 6 5 10 10 10 6 0 10 -4
10 -10z m67 4 c-3 -3 -12 -4 -19 -1 -8 3 -5 6 6 6 11 1 17 -2 13 -5z m230 0
c-3 -3 -12 -4 -19 -1 -8 3 -5 6 6 6 11 1 17 -2 13 -5z m63 -4 c0 -5 -4 -10
-10 -10 -5 0 -10 5 -10 10 0 6 5 10 10 10 6 0 10 -4 10 -10z m177 -12 c-3 -8
-6 -5 -6 6 -1 11 2 17 5 13 3 -3 4 -12 1 -19z m-400 6 c-3 -3 -12 -4 -19 -1
-8 3 -5 6 6 6 11 1 17 -2 13 -5z m90 0 c-3 -3 -12 -4 -19 -1 -8 3 -5 6 6 6 11
1 17 -2 13 -5z m230 0 c-3 -3 -12 -4 -19 -1 -8 3 -5 6 6 6 11 1 17 -2 13 -5z
m-382 -35 c0 -19 -6 -24 -25 -24 -18 0 -25 6 -26 20 -1 29 5 35 29 31 16 -2
22 -10 22 -27z m120 1 c0 -19 -5 -24 -25 -24 -18 0 -25 5 -26 19 -1 30 6 36
29 33 16 -2 22 -10 22 -28z m120 0 c0 -19 -5 -25 -24 -25 -16 0 -25 6 -27 19
-4 27 2 33 28 32 17 -1 23 -7 23 -26z m99 5 c-5 -19 -3 -25 7 -23 21 5 19 -41
-2 -53 -13 -6 -19 -6 -19 1 0 5 6 10 13 10 7 0 13 9 14 20 1 11 -2 18 -7 15
-13 -8 -22 13 -15 35 9 29 17 25 9 -5z m-412 -12 c-11 -19 -48 -28 -57 -13 -3
5 0 12 6 16 7 4 9 3 5 -4 -4 -7 1 -10 14 -9 11 1 23 10 26 20 3 10 8 16 11 14
2 -3 0 -14 -5 -24z m335 5 c-3 -8 -6 -5 -6 6 -1 11 2 17 5 13 3 -3 4 -12 1
-19z m-217 2 c-8 -5 -19 -10 -25 -10 -5 0 -3 5 5 10 8 5 20 10 25 10 6 0 3 -5
-5 -10z m120 0 c8 -5 11 -10 5 -10 -5 0 -17 5 -25 10 -8 5 -10 10 -5 10 6 0
17 -5 25 -10z m210 0 c0 -5 -2 -10 -4 -10 -3 0 -8 5 -11 10 -3 6 -1 10 4 10 6
0 11 -4 11 -10z m107 4 c-2 -3 -17 -7 -33 -10 -17 -2 -24 -1 -17 4 13 8 58 14
50 6z m13 -17 c-8 -7 -16 -20 -18 -30 -3 -15 0 -16 17 -5 11 6 17 16 15 20 -7
11 23 21 42 14 13 -5 13 -9 -3 -30 -10 -13 -20 -22 -22 -20 -2 2 4 13 14 24
18 19 17 20 -4 20 -12 0 -20 -4 -17 -9 3 -5 -5 -16 -19 -25 -25 -16 -35 -11
-32 15 3 18 30 49 37 42 3 -2 -2 -10 -10 -16z m-431 -37 c0 -10 -3 -8 -9 5
-12 27 -12 43 0 25 5 -8 9 -22 9 -30z m72 9 c-5 -13 -10 -19 -10 -12 -1 15 10
45 15 40 3 -2 0 -15 -5 -28z m316 -1 c-3 -8 -6 -5 -6 6 -1 11 2 17 5 13 3 -3
4 -12 1 -19z m-420 6 c-3 -3 -12 -4 -19 -1 -8 3 -5 6 6 6 11 1 17 -2 13 -5z
m150 0 c-3 -3 -12 -4 -19 -1 -8 3 -5 6 6 6 11 1 17 -2 13 -5z m143 -4 c0 -5
-4 -10 -10 -10 -5 0 -10 5 -10 10 0 6 5 10 10 10 6 0 10 -4 10 -10z m57 -12
c-3 -8 -6 -5 -6 6 -1 11 2 17 5 13 3 -3 4 -12 1 -19z m-400 6 c-3 -3 -12 -4
-19 -1 -8 3 -5 6 6 6 11 1 17 -2 13 -5z m123 -4 c0 -5 -4 -10 -10 -10 -5 0
-10 5 -10 10 0 6 5 10 10 10 6 0 10 -4 10 -10z m127 4 c-3 -3 -12 -4 -19 -1
-8 3 -5 6 6 6 11 1 17 -2 13 -5z m-287 -14 c0 -5 -4 -10 -10 -10 -5 0 -10 5
-10 10 0 6 5 10 10 10 6 0 10 -4 10 -10z m65 2 c-15 -11 -15 -42 1 -42 8 0 14
-5 14 -10 0 -7 -6 -7 -18 -1 -12 6 -18 19 -16 33 3 30 2 28 17 28 7 0 8 -3 2
-8z m39 -7 c3 -9 12 -12 23 -8 10 3 15 3 12 -1 -11 -12 -57 -17 -64 -6 -4 6 1
7 12 3 16 -6 16 -5 4 10 -7 9 -9 17 -3 17 5 0 12 -7 16 -15z m116 11 c0 -2 -7
-9 -15 -16 -13 -11 -14 -10 -9 4 5 14 24 23 24 12z m34 -26 c0 -13 -6 -25 -14
-28 -9 -2 -11 0 -5 5 6 4 10 15 10 23 0 8 -4 19 -10 23 -6 5 -4 7 5 5 8 -3 14
-15 14 -28z m-284 -2 c0 -6 -6 -5 -15 2 -8 7 -15 14 -15 16 0 2 7 1 15 -2 8
-4 15 -11 15 -16z m60 2 c0 -5 -4 -10 -10 -10 -5 0 -10 5 -10 10 0 6 5 10 10
10 6 0 10 -4 10 -10z m130 -8 c-14 -9 -26 -25 -28 -35 -3 -15 0 -16 17 -5 11
6 19 17 18 22 -1 6 8 11 21 11 12 0 22 -4 21 -10 0 -5 8 -13 18 -17 16 -7 16
-8 -2 -5 -11 2 -19 9 -17 15 1 7 -7 12 -19 12 -11 0 -18 -4 -15 -9 3 -5 -5
-16 -19 -25 -25 -17 -35 -11 -31 17 2 18 34 46 51 47 6 0 -1 -8 -15 -18z m130
8 c0 -5 -4 -10 -10 -10 -5 0 -10 5 -10 10 0 6 5 10 10 10 6 0 10 -4 10 -10z
m167 4 c-2 -3 -17 -7 -33 -10 -17 -2 -24 -1 -17 4 13 8 58 14 50 6z m68 -4 c3
-5 1 -10 -4 -10 -6 0 -11 5 -11 10 0 6 2 10 4 10 3 0 8 -4 11 -10z m45 -5 c0
-8 -2 -15 -4 -15 -2 0 -6 7 -10 15 -3 8 -1 15 4 15 6 0 10 -7 10 -15z m-254
-41 c3 -16 2 -26 -1 -23 -3 4 -8 19 -11 35 -3 16 -2 26 1 23 3 -4 8 -19 11
-35z m-209 4 c-3 -8 -6 -5 -6 6 -1 11 2 17 5 13 3 -3 4 -12 1 -19z m293 12 c0
-5 -5 -10 -11 -10 -5 0 -7 5 -4 10 3 6 8 10 11 10 2 0 4 -4 4 -10z m27 -12
c-3 -8 -6 -5 -6 6 -1 11 2 17 5 13 3 -3 4 -12 1 -19z m-387 2 c0 -5 -7 -7 -15
-4 -8 4 -15 8 -15 10 0 2 7 4 15 4 8 0 15 -4 15 -10z m247 4 c-3 -3 -12 -4
-19 -1 -8 3 -5 6 6 6 11 1 17 -2 13 -5z m228 -4 c-27 -12 -43 -12 -25 0 8 5
22 9 30 9 10 0 8 -3 -5 -9z m-158 -6 c-3 -3 -12 -4 -19 -1 -8 3 -5 6 6 6 11 1
17 -2 13 -5z m-157 -14 c0 -5 -4 -10 -10 -10 -5 0 -10 5 -10 10 0 6 5 10 10
10 6 0 10 -4 10 -10z m98 -11 c2 -8 0 -10 -5 -4 -4 6 -17 11 -28 13 -20 3 -20
2 -1 -13 11 -8 15 -15 9 -15 -14 0 -34 25 -27 33 11 11 48 1 52 -14z m120 3
c2 -7 9 -9 14 -6 7 4 8 2 4 -4 -10 -16 -26 -15 -26 1 0 7 -8 13 -18 14 -13 1
-18 -5 -18 -19 1 -27 -37 -34 -55 -11 -10 12 -10 15 -1 9 6 -4 12 -2 12 3 0 6
5 11 11 11 8 0 8 -4 -1 -14 -9 -12 -8 -15 10 -13 12 1 20 8 19 17 -1 8 -1 18
0 22 2 12 44 3 49 -10z m-253 -12 c-3 -5 -11 -10 -16 -10 -6 0 -7 5 -4 10 3 6
11 10 16 10 6 0 7 -4 4 -10z m65 -6 c0 -8 4 -13 9 -9 11 6 36 -33 27 -43 -3
-3 -6 0 -6 7 0 7 -4 9 -10 6 -6 -4 -7 1 -3 11 4 11 3 15 -5 10 -6 -3 -16 3
-22 14 -7 13 -7 20 0 20 5 0 10 -7 10 -16z m-32 -5 c-2 -6 -8 -10 -13 -9 -6 1
-13 -9 -17 -22 -7 -22 -7 -22 -5 2 1 14 8 24 15 23 6 -2 12 2 12 7 0 6 3 10 6
10 3 0 4 -5 2 -11z m113 -16 c13 -16 12 -17 -4 -4 -17 13 -18 12 -13 -14 3
-15 2 -25 -1 -21 -13 13 -12 56 1 56 2 0 10 -8 17 -17z m-91 -13 c0 -5 -4 -10
-10 -10 -5 0 -10 5 -10 10 0 6 5 10 10 10 6 0 10 -4 10 -10z m147 -6 c-3 -3
-12 -4 -19 -1 -8 3 -5 6 6 6 11 1 17 -2 13 -5z"/>
<path d="M1263 3758 c1 -10 8 -18 17 -18 9 0 16 8 17 18 1 11 -5 18 -17 18
-12 0 -18 -7 -17 -18z"/>
<path d="M1263 3682 c-1 -11 5 -18 17 -18 12 0 18 7 17 18 -1 10 -8 18 -17 18
-9 0 -16 -8 -17 -18z"/>
<path d="M1463 3639 c1 -10 9 -17 18 -16 10 1 17 9 16 18 -1 10 -9 17 -18 16
-10 -1 -17 -9 -16 -18z"/>
<path d="M1583 3561 c-1 -9 6 -17 16 -18 9 -1 17 6 18 16 1 9 -6 17 -16 18 -9
1 -17 -6 -18 -16z"/>
<path d="M1263 3518 c1 -10 8 -18 17 -18 9 0 16 8 17 18 1 11 -5 18 -17 18
-12 0 -18 -7 -17 -18z"/>
<path d="M1744 3480 c0 -12 7 -18 18 -17 10 1 18 8 18 17 0 9 -8 16 -18 17
-11 1 -18 -5 -18 -17z"/>
<path d="M1143 3321 c-1 -9 6 -17 16 -18 9 -1 17 6 18 16 1 9 -6 17 -16 18 -9
1 -17 -6 -18 -16z"/>
<path d="M1263 3322 c-1 -11 5 -18 17 -18 12 0 18 7 17 18 -1 10 -8 18 -17 18
-9 0 -16 -8 -17 -18z"/>
<path d="M1383 3319 c1 -10 9 -17 18 -16 10 1 17 9 16 18 -1 10 -9 17 -18 16
-10 -1 -17 -9 -16 -18z"/>
<path d="M5460 3898 c-128 -48 -218 -141 -259 -268 -90 -274 119 -557 407
-549 163 5 297 89 368 233 113 231 0 503 -244 585 -83 28 -197 28 -272 -1z"/>
<path d="M1677 3804 c-11 -11 -8 -26 3 -19 5 3 12 -6 16 -20 3 -13 10 -22 15
-19 5 3 14 -6 20 -20 7 -14 16 -23 21 -20 8 5 -4 24 -50 82 -10 13 -21 20 -25
16z"/>
<path d="M1973 2432 c-13 -2 -23 -9 -23 -15 0 -8 -3 -9 -8 -1 -5 7 -18 8 -41
2 -27 -8 -32 -12 -20 -19 10 -8 9 -9 -7 -4 -23 6 -74 -12 -74 -27 0 -5 -4 -7
-9 -4 -12 8 -116 -95 -136 -134 -9 -17 -13 -36 -9 -42 4 -6 3 -8 -3 -5 -12 7
-47 -95 -40 -115 2 -7 0 -22 -6 -32 -7 -15 -6 -18 7 -13 8 3 18 1 22 -5 4 -6
3 -8 -3 -5 -13 8 -36 -17 -26 -27 4 -4 8 -15 8 -24 1 -9 2 -30 3 -45 1 -19 6
-26 14 -21 7 4 8 3 4 -4 -19 -31 101 -209 132 -197 9 3 13 3 9 -1 -11 -12 13
-33 30 -27 10 4 14 2 10 -4 -6 -10 27 -28 63 -35 8 -2 18 -7 21 -11 3 -4 27
-9 52 -10 26 -1 47 -6 47 -10 0 -4 9 -3 19 3 14 7 21 6 24 -3 3 -6 6 -7 6 -1
1 6 14 9 31 6 18 -2 30 0 30 7 0 6 6 8 13 5 17 -6 88 23 105 45 8 9 10 10 6 2
-5 -9 4 -6 22 6 67 50 138 129 128 144 -3 5 -1 9 4 9 5 0 13 10 17 23 4 12 9
27 11 32 2 6 5 19 6 30 2 11 6 23 11 26 12 9 10 142 -4 190 -7 24 -12 47 -11
52 1 4 -2 7 -8 7 -5 0 -10 9 -10 20 0 11 -4 20 -10 20 -5 0 -10 4 -10 10 0 31
-105 127 -175 160 -82 39 -112 45 -132 29 -12 -10 -15 -10 -9 -1 4 7 2 12 -6
13 -7 0 -22 2 -33 3 -11 1 -30 0 -42 -2z m34 -27 c0 -8 -4 -15 -9 -15 -10 0
-11 14 -1 23 9 10 10 9 10 -8z m123 1 c0 -2 -7 -7 -16 -10 -8 -3 -12 -2 -9 4
6 10 25 14 25 6z m-184 -31 c-1 -8 -5 -17 -8 -21 -5 -4 -4 16 1 34 3 9 9 -1 7
-13z m119 6 c3 -5 2 -12 -3 -15 -5 -3 -9 1 -9 9 0 17 3 19 12 6z m82 -30 c0
-11 -5 -18 -9 -15 -4 3 -5 11 -1 19 7 21 12 19 10 -4z m-262 -10 c-9 -8 -36
-10 -30 -2 2 4 11 8 20 8 8 0 13 -3 10 -6z m121 -3 c3 -4 -1 -5 -10 -4 -8 1
-18 5 -22 8 -3 4 1 5 10 4 8 -1 18 -5 22 -8z m249 2 c3 -6 -1 -7 -9 -4 -18 7
-21 14 -7 14 6 0 13 -4 16 -10z m-29 -25 c-1 -8 -5 -17 -8 -21 -5 -4 -4 16 1
34 3 9 9 -1 7 -13z m-161 -14 c-9 -8 -36 -10 -30 -2 2 4 11 8 20 8 8 0 13 -3
10 -6z m103 -26 c-3 -3 -9 2 -12 12 -6 14 -5 15 5 6 7 -7 10 -15 7 -18z m-25
0 c4 -8 3 -16 -1 -19 -4 -3 -9 4 -9 15 -2 23 3 25 10 4z m-358 -16 c3 -3 -6
-5 -19 -5 -14 1 -28 4 -31 7 -3 3 6 5 19 5 14 -1 28 -4 31 -7z m56 -6 c12 -16
12 -17 -2 -6 -9 7 -20 9 -24 5 -5 -4 -5 -1 -1 6 9 16 11 15 27 -5z m79 11 c0
-8 -19 -13 -24 -6 -3 5 1 9 9 9 8 0 15 -2 15 -3z m66 -9 c-1 -8 -5 -17 -8 -21
-5 -4 -4 16 1 34 3 9 9 -1 7 -13z m320 -11 c1 -9 0 -13 -4 -10 -3 4 -7 14 -8
22 -1 9 0 13 4 10 3 -4 7 -14 8 -22z m-240 -26 c3 -4 -1 -5 -10 -4 -8 1 -18 5
-22 8 -3 4 1 5 10 4 8 -1 18 -5 22 -8z m79 3 c3 -5 2 -12 -3 -15 -5 -3 -9 1
-9 9 0 17 3 19 12 6z m89 1 c3 -5 -1 -9 -9 -9 -8 0 -12 4 -9 9 3 4 7 8 9 8 2
0 6 -4 9 -8z m-383 -19 c13 -16 12 -17 -3 -4 -10 7 -18 15 -18 17 0 8 8 3 21
-13z m-116 -2 c-9 -8 -36 -10 -30 -2 2 4 11 8 20 8 8 0 13 -3 10 -6z m91 -37
c1 -9 0 -13 -4 -10 -3 4 -7 14 -8 22 -1 9 0 13 4 10 3 -4 7 -14 8 -22z m80 11
c-1 -8 -5 -17 -8 -21 -5 -4 -4 16 1 34 3 9 9 -1 7 -13z m80 3 c3 -4 -1 -5 -10
-4 -8 1 -18 5 -22 8 -3 4 1 5 10 4 8 -1 18 -5 22 -8z m84 2 c0 -5 -2 -10 -4
-10 -3 0 -8 5 -11 10 -3 6 -1 10 4 10 6 0 11 -4 11 -10z m96 -2 c3 -4 -1 -5
-10 -4 -8 1 -18 5 -22 8 -3 4 1 5 10 4 8 -1 18 -5 22 -8z m119 3 c-9 -8 -36
-10 -30 -2 2 4 11 8 20 8 8 0 13 -3 10 -6z m-140 -30 c3 -5 2 -12 -3 -15 -5
-3 -9 1 -9 9 0 17 3 19 12 6z m-440 -11 c3 -5 1 -10 -4 -10 -6 0 -11 5 -11 10
0 6 2 10 4 10 3 0 8 -4 11 -10z m520 0 c3 -5 1 -10 -4 -10 -6 0 -11 5 -11 10
0 6 2 10 4 10 3 0 8 -4 11 -10z m165 0 c0 -5 -2 -10 -4 -10 -3 0 -8 5 -11 10
-3 6 -1 10 4 10 6 0 11 -4 11 -10z m-299 -17 c13 -16 12 -17 -3 -4 -10 7 -18
15 -18 17 0 8 8 3 21 -13z m-345 -8 c-1 -8 -5 -17 -8 -21 -5 -4 -4 16 1 34 3
9 9 -1 7 -13z m40 0 c-1 -8 -5 -17 -8 -21 -5 -4 -4 16 1 34 3 9 9 -1 7 -13z
m159 -7 c5 4 5 1 1 -6 -6 -10 -11 -10 -22 -1 -8 6 -14 14 -14 16 0 3 6 0 13
-6 8 -6 18 -7 22 -3z m362 -3 c0 -8 -4 -12 -9 -9 -5 3 -6 10 -3 15 9 13 12 11
12 -6z m-421 -7 c3 -4 -1 -5 -10 -4 -8 1 -18 5 -22 8 -3 4 1 5 10 4 8 -1 18
-5 22 -8z m140 0 c4 -7 4 -10 -1 -6 -4 4 -15 2 -24 -5 -14 -11 -14 -10 -2 6
16 20 18 21 27 5z m55 -5 c12 -16 12 -17 -2 -6 -9 7 -20 9 -24 5 -5 -4 -5 -1
-1 6 9 16 11 15 27 -5z m69 7 c0 -5 -5 -10 -11 -10 -5 0 -7 5 -4 10 3 6 8 10
11 10 2 0 4 -4 4 -10z m75 1 c-9 -8 -36 -10 -30 -2 2 4 11 8 20 8 8 0 13 -3
10 -6z m-539 -27 c1 -9 0 -13 -4 -10 -3 4 -7 14 -8 22 -1 9 0 13 4 10 3 -4 7
-14 8 -22z m59 -13 c3 -5 2 -12 -3 -15 -5 -3 -9 1 -9 9 0 17 3 19 12 6z m481
-3 c3 -4 -1 -5 -10 -4 -8 1 -18 5 -22 8 -3 4 1 5 10 4 8 -1 18 -5 22 -8z m119
3 c-9 -8 -36 -10 -30 -2 2 4 11 8 20 8 8 0 13 -3 10 -6z m61 -3 c3 -4 -1 -5
-10 -4 -8 1 -18 5 -22 8 -3 4 1 5 10 4 8 -1 18 -5 22 -8z m-569 -16 c-10 -10
-14 -22 -10 -27 5 -4 2 -5 -5 -1 -11 6 -10 12 4 27 9 10 19 19 22 19 3 0 -2
-8 -11 -18z m348 -11 c3 -5 2 -12 -3 -15 -5 -3 -9 1 -9 9 0 17 3 19 12 6z
m-500 -10 c-9 -8 -36 -10 -30 -2 2 4 11 8 20 8 8 0 13 -3 10 -6z m301 -6 c-1
-8 -5 -17 -8 -21 -5 -4 -4 16 1 34 3 9 9 -1 7 -13z m40 -11 c1 -9 0 -13 -4
-10 -3 4 -7 14 -8 22 -1 9 0 13 4 10 3 -4 7 -14 8 -22z m319 17 c-9 -8 -36
-10 -30 -2 2 4 11 8 20 8 8 0 13 -3 10 -6z m-439 -26 c-1 -8 -5 -17 -8 -21 -5
-4 -4 16 1 34 3 9 9 -1 7 -13z m200 -11 c1 -9 0 -13 -4 -10 -3 4 -7 14 -8 22
-1 9 0 13 4 10 3 -4 7 -14 8 -22z m-401 -3 c3 -5 2 -12 -3 -15 -5 -3 -9 1 -9
9 0 17 3 19 12 6z m581 -3 c3 -4 -1 -5 -10 -4 -8 1 -18 5 -22 8 -3 4 1 5 10 4
8 -1 18 -5 22 -8z m-438 -23 c-3 -3 -9 2 -12 12 -6 14 -5 15 5 6 7 -7 10 -15
7 -18z m315 10 c-3 -9 -8 -14 -10 -11 -3 3 -2 9 2 15 9 16 15 13 8 -4z m-344
-9 c9 -11 9 -16 -1 -22 -7 -4 -10 -4 -6 1 4 4 3 14 -3 22 -6 7 -9 13 -6 13 2
0 10 -6 16 -14z m368 -5 c0 -11 -5 -18 -9 -15 -4 3 -5 11 -1 19 7 21 12 19 10
-4z m-201 -13 c3 -4 -1 -5 -10 -4 -8 1 -18 5 -22 8 -3 4 1 5 10 4 8 -1 18 -5
22 -8z m59 3 c-9 -8 -36 -10 -30 -2 2 4 11 8 20 8 8 0 13 -3 10 -6z m301 -17
c1 -9 0 -13 -4 -10 -3 4 -7 14 -8 22 -1 9 0 13 4 10 3 -4 7 -14 8 -22z m-601
-23 c-9 -8 -36 -10 -30 -2 2 4 11 8 20 8 8 0 13 -3 10 -6z m78 -16 c-7 -21
-12 -19 -10 4 0 11 5 18 9 15 4 -3 5 -11 1 -19z m102 16 c-9 -8 -36 -10 -30
-2 2 4 11 8 20 8 8 0 13 -3 10 -6z m181 -3 c3 -4 -1 -5 -10 -4 -8 1 -18 5 -22
8 -3 4 1 5 10 4 8 -1 18 -5 22 -8z m81 -3 c0 -8 -4 -12 -9 -9 -5 3 -6 10 -3
15 9 13 12 11 12 -6z m98 6 c-9 -8 -36 -10 -30 -2 2 4 11 8 20 8 8 0 13 -3 10
-6z m-282 -16 c-3 -9 -8 -14 -10 -11 -3 3 -2 9 2 15 9 16 15 13 8 -4z m-220
-10 c4 -8 3 -16 -1 -19 -4 -3 -9 4 -9 15 -2 23 3 25 10 4z m182 5 c3 -5 1 -10
-4 -10 -6 0 -11 5 -11 10 0 6 2 10 4 10 3 0 8 -4 11 -10z m405 0 c0 -5 -2 -10
-4 -10 -3 0 -8 5 -11 10 -3 6 -1 10 4 10 6 0 11 -4 11 -10z m-103 -15 c0 -8
-4 -12 -9 -9 -5 3 -6 10 -3 15 9 13 12 11 12 -6z m-382 -4 c-9 -8 -36 -10 -30
-2 2 4 11 8 20 8 8 0 13 -3 10 -6z m180 0 c-9 -8 -36 -10 -30 -2 2 4 11 8 20
8 8 0 13 -3 10 -6z m120 0 c-9 -8 -36 -10 -30 -2 2 4 11 8 20 8 8 0 13 -3 10
-6z m-479 -37 c1 -9 0 -13 -4 -10 -3 4 -7 14 -8 22 -1 9 0 13 4 10 3 -4 7 -14
8 -22z m280 0 c1 -9 0 -13 -4 -10 -3 4 -7 14 -8 22 -1 9 0 13 4 10 3 -4 7 -14
8 -22z m140 -6 c3 -4 -1 -5 -10 -4 -8 1 -18 5 -22 8 -3 4 1 5 10 4 8 -1 18 -5
22 -8z m140 -3 c-1 -8 -5 -17 -8 -21 -5 -4 -4 16 1 34 3 9 9 -1 7 -13z m94 9
c0 -8 -19 -13 -24 -6 -3 5 1 9 9 9 8 0 15 -2 15 -3z m-420 -17 c0 -2 -9 -12
-19 -21 -14 -13 -21 -14 -27 -5 -4 7 -3 10 3 6 6 -4 16 0 23 8 12 14 20 19 20
12z m-156 -25 c2 -4 -5 -9 -17 -9 -17 -2 -19 0 -7 7 18 12 18 12 24 2z m57 -9
c12 -16 12 -17 -2 -6 -9 7 -20 9 -24 5 -5 -4 -5 -1 -1 6 9 16 11 15 27 -5z
m225 5 c3 -4 -1 -5 -10 -4 -8 1 -18 5 -22 8 -3 4 1 5 10 4 8 -1 18 -5 22 -8z
m120 -14 c1 -9 0 -13 -4 -10 -3 4 -7 14 -8 22 -1 9 0 13 4 10 3 -4 7 -14 8
-22z m-436 -24 c0 -5 -5 -10 -11 -10 -5 0 -7 5 -4 10 3 6 8 10 11 10 2 0 4 -4
4 -10z m255 1 c-9 -8 -36 -10 -30 -2 2 4 11 8 20 8 8 0 13 -3 10 -6z m120 0
c-9 -8 -36 -10 -30 -2 2 4 11 8 20 8 8 0 13 -3 10 -6z m-276 -14 c8 -10 7 -14
-2 -14 -8 0 -14 6 -14 14 0 7 1 13 2 13 2 0 8 -6 14 -13z m97 -23 c1 -9 0 -13
-4 -10 -3 4 -7 14 -8 22 -1 9 0 13 4 10 3 -4 7 -14 8 -22z m-36 -4 c0 -5 -5
-10 -11 -10 -5 0 -7 5 -4 10 3 6 8 10 11 10 2 0 4 -4 4 -10z m200 0 c0 -5 -2
-10 -4 -10 -3 0 -8 5 -11 10 -3 6 -1 10 4 10 6 0 11 -4 11 -10z m95 1 c-9 -8
-36 -10 -30 -2 2 4 11 8 20 8 8 0 13 -3 10 -6z m-259 -46 c-1 -8 -5 -17 -8
-21 -5 -4 -4 16 1 34 3 9 9 -1 7 -13z m120 0 c-1 -8 -5 -17 -8 -21 -5 -4 -4
16 1 34 3 9 9 -1 7 -13z m40 0 c-1 -8 -5 -17 -8 -21 -5 -4 -4 16 1 34 3 9 9
-1 7 -13z"/>
<path d="M4890 2425 c-270 -71 -403 -355 -280 -596 181 -356 694 -290 787 101
8 33 8 137 1 174 -31 145 -157 278 -298 316 -61 17 -156 19 -210 5z"/>
<path d="M3368 1796 c-87 -30 -141 -68 -195 -136 -58 -74 -85 -147 -89 -242
-6 -153 64 -289 191 -371 126 -82 301 -86 435 -9 127 72 214 229 209 376 -11
277 -293 473 -551 382z"/>
</g>
</svg>
